
<svg xmlns:mydata="http://www.w3.org/2000/svg" mydata:contrastcolor="25142d" mydata:template="Contrast" mydata:presentation="2.5" mydata:layouttype="undefined" mydata:specialfontid="undefined" mydata:id1="018" mydata:id2="027" mydata:companyname="Job Shala"
width = "200" height = "200"
mydata:companytagline="Job at any time, anywhere, any type." version="1.1" xmlns="http://www.w3.org/2000/svg" xmlns:xlink="http://www.w3.org/1999/xlink" viewBox="0 45 550 380" class="__web-inspector-hide-shortcut__"><defs><linearGradient x1="65" y1="235" x2="485" y2="235" gradientUnits="userSpaceOnUse" id="color-14915192132"><stop offset="0" stop-color="#7b4397"></stop><stop offset="1" stop-color="#dc2430"></stop></linearGradient></defs><g fill="url(#color-14915192132)" fill-rule="none" stroke="none" stroke-width="1" stroke-linecap="butt" stroke-linejoin="miter" stroke-miterlimit="10" stroke-dasharray="" stroke-dashoffset="0" font-family="none" font-weight="none" font-size="none" text-anchor="none" style="mix-blend-mode: normal"><g data-paper-data="{&quot;isGlobalGroup&quot;:true,&quot;bounds&quot;:{&quot;x&quot;:64.99999999999999,&quot;y&quot;:195.23462592154158,&quot;width&quot;:420,&quot;height&quot;:79.53074815691684}}"><g data-paper-data="{&quot;isSecondaryText&quot;:true}" fill-rule="nonzero"><path d="M167.88516,255.41145c0,-0.15002 0.02653,-0.28997 0.07958,-0.41986c0.05305,-0.12989 0.12532,-0.24332 0.21679,-0.34028c0.09147,-0.09696 0.1985,-0.17288 0.32107,-0.22777c0.12257,-0.05488 0.25521,-0.08233 0.39791,-0.08233c0.1427,0 0.27533,0.02744 0.39791,0.08233c0.12257,0.05488 0.23051,0.13081 0.32381,0.22777c0.0933,0.09696 0.16648,0.21039 0.21954,0.34028c0.05305,0.12989 0.07958,0.26985 0.07958,0.41986l-0.00549,4.30289c0,0.46102 -0.06495,0.86533 -0.19484,1.21293c-0.12989,0.3476 -0.31741,0.63757 -0.56256,0.86991c-0.24515,0.23234 -0.54609,0.40797 -0.90284,0.52688c-0.35674,0.11891 -0.7638,0.17837 -1.22116,0.17837c-0.40614,0 -0.79307,-0.06129 -1.16079,-0.18386c-0.36772,-0.12257 -0.68879,-0.31924 -0.96321,-0.59c-0.13172,-0.12806 -0.24057,-0.26985 -0.32656,-0.42535c-0.08598,-0.1555 -0.12898,-0.29912 -0.12898,-0.43084c0,-0.08781 0.02012,-0.1738 0.06037,-0.25795c0.04025,-0.08416 0.0933,-0.15825 0.15916,-0.22228c0.06586,-0.06403 0.14178,-0.11526 0.22777,-0.15367c0.08598,-0.03842 0.17288,-0.05763 0.2607,-0.05763c0.07684,0 0.14819,0.02012 0.21405,0.06037c0.06586,0.04025 0.13081,0.08873 0.19484,0.14544c0.06403,0.05671 0.12623,0.118 0.1866,0.18386c0.06037,0.06586 0.12349,0.1244 0.18935,0.17563c0.13172,0.10611 0.27076,0.18935 0.41712,0.24972c0.14636,0.06037 0.30735,0.09056 0.48298,0.09056c0.35857,0 0.6211,-0.10977 0.78758,-0.3293c0.16648,-0.21954 0.24972,-0.56347 0.24972,-1.03182z" data-paper-data="{&quot;glyphName&quot;:&quot;J&quot;,&quot;glyphIndex&quot;:0,&quot;firstGlyphOfWord&quot;:true,&quot;word&quot;:1}"></path><path d="M175.47376,258.33676c0,0.90741 0.14453,1.59254 0.43358,2.0554c0.28905,0.46285 0.74093,0.69428 1.35563,0.69428c0.60372,0 1.05377,-0.23051 1.35014,-0.69154c0.29637,-0.46102 0.44456,-1.14707 0.44456,-2.05814c0,-0.43907 -0.03567,-0.82966 -0.10702,-1.17177c-0.07135,-0.34211 -0.1802,-0.63025 -0.32656,-0.86442c-0.14636,-0.23417 -0.33205,-0.41254 -0.55707,-0.53512c-0.22502,-0.12257 -0.49304,-0.18386 -0.80405,-0.18386c-0.30735,0 -0.57354,0.06129 -0.79856,0.18386c-0.22502,0.12257 -0.41071,0.30095 -0.55707,0.53512c-0.14636,0.23417 -0.25521,0.52231 -0.32656,0.86442c-0.07135,0.34211 -0.10702,0.7327 -0.10702,1.17177zM173.33878,258.33676c0,-0.60372 0.08141,-1.16171 0.24423,-1.67396c0.16282,-0.51225 0.40705,-0.95315 0.7327,-1.3227c0.32564,-0.36955 0.73361,-0.65861 1.22391,-0.86716c0.4903,-0.20856 1.06475,-0.31284 1.72335,-0.31284c0.64031,0 1.20561,0.10062 1.69591,0.30186c0.4903,0.20124 0.90009,0.48572 1.2294,0.85344c0.3293,0.36772 0.57811,0.80771 0.74642,1.31995c0.16831,0.51225 0.25247,1.07938 0.25247,1.7014c0,0.61104 -0.08233,1.17268 -0.24698,1.68493c-0.16465,0.51225 -0.41163,0.95223 -0.74093,1.31995c-0.3293,0.36772 -0.7391,0.65403 -1.2294,0.85893c-0.4903,0.2049 -1.05926,0.30735 -1.70689,0.30735c-0.63299,0 -1.19372,-0.09879 -1.68219,-0.29637c-0.48847,-0.19758 -0.89918,-0.4784 -1.23214,-0.84247c-0.33296,-0.36406 -0.58451,-0.80222 -0.75465,-1.31447c-0.17014,-0.51225 -0.25521,-1.08487 -0.25521,-1.71786z" data-paper-data="{&quot;glyphName&quot;:&quot;O&quot;,&quot;glyphIndex&quot;:1,&quot;word&quot;:1}"></path><path d="M184.86254,255.31266c0,-0.17197 0.03476,-0.31924 0.10428,-0.44181c0.06952,-0.12257 0.16191,-0.22228 0.27716,-0.29912c0.11526,-0.07684 0.24972,-0.13355 0.4034,-0.17014c0.15367,-0.03659 0.3165,-0.05488 0.48847,-0.05488h1.7014c0.24881,0 0.50493,0.00457 0.76837,0.01372c0.26344,0.00915 0.5214,0.03476 0.77386,0.07684c0.25247,0.04208 0.4903,0.10428 0.71349,0.1866c0.22319,0.08233 0.41895,0.19758 0.58726,0.34577c0.16831,0.14819 0.30186,0.33479 0.40065,0.55981c0.09879,0.22502 0.14819,0.49853 0.14819,0.82051c0,0.21588 -0.03659,0.42352 -0.10977,0.62293c-0.07318,0.19941 -0.17746,0.37961 -0.31284,0.54061c-0.13538,0.16099 -0.29637,0.29729 -0.48298,0.40888c-0.1866,0.1116 -0.39333,0.18752 -0.62019,0.22777v0.02195c0.27442,0.04025 0.52231,0.11617 0.74368,0.22777c0.22136,0.1116 0.40888,0.25155 0.56256,0.41986c0.15367,0.16831 0.27259,0.36223 0.35674,0.58177c0.08416,0.21954 0.12623,0.45554 0.12623,0.708c0,0.27808 -0.05488,0.54975 -0.16465,0.81502c-0.10977,0.26527 -0.27808,0.50036 -0.50493,0.70526c-0.22685,0.2049 -0.51499,0.37047 -0.86442,0.4967c-0.34943,0.12623 -0.7638,0.18935 -1.24312,0.18935h-2.57954c-0.20856,0 -0.3915,-0.01647 -0.54884,-0.0494c-0.15733,-0.03293 -0.28997,-0.09971 -0.39791,-0.20033c-0.10794,-0.10062 -0.18935,-0.24332 -0.24423,-0.42809c-0.05488,-0.18478 -0.08233,-0.42901 -0.08233,-0.7327zM186.79994,261.08644h0.91107c0.29271,0 0.55067,-0.01464 0.77386,-0.04391c0.22319,-0.02927 0.4098,-0.08781 0.55981,-0.17563c0.15002,-0.08781 0.26344,-0.20947 0.34028,-0.36498c0.07684,-0.1555 0.11526,-0.35766 0.11526,-0.60647c0,-0.23051 -0.04391,-0.41895 -0.13172,-0.5653c-0.08781,-0.14636 -0.21222,-0.26253 -0.37321,-0.34851c-0.16099,-0.08598 -0.35492,-0.14544 -0.58177,-0.17837c-0.22685,-0.03293 -0.47932,-0.0494 -0.7574,-0.0494h-0.85619zM186.79994,255.57611v2.17889h0.78484c0.24149,0 0.4656,-0.01647 0.67233,-0.0494c0.20673,-0.03293 0.38419,-0.09147 0.53237,-0.17563c0.14819,-0.08416 0.26436,-0.1985 0.34851,-0.34302c0.08416,-0.14453 0.12623,-0.32839 0.12623,-0.55158c0,-0.22319 -0.04116,-0.4034 -0.12349,-0.54061c-0.08233,-0.13721 -0.19484,-0.24423 -0.33754,-0.32107c-0.1427,-0.07684 -0.30918,-0.12898 -0.49944,-0.15642c-0.19026,-0.02744 -0.3915,-0.04116 -0.60372,-0.04116z" data-paper-data="{&quot;glyphName&quot;:&quot;B&quot;,&quot;glyphIndex&quot;:2,&quot;lastGlyphOfWord&quot;:true,&quot;word&quot;:1}"></path><path d="M204.05174,255.84504l-1.20744,3.52903h2.43684l-1.20195,-3.52903zM207.63016,260.65286c0.02561,0.06586 0.05305,0.13447 0.08233,0.20581c0.02927,0.07135 0.05671,0.14361 0.08233,0.21679c0.02561,0.07318 0.04665,0.14361 0.06312,0.2113c0.01647,0.06769 0.0247,0.12898 0.0247,0.18386c0,0.13538 -0.0247,0.25521 -0.07409,0.35949c-0.0494,0.10428 -0.11617,0.19209 -0.20033,0.26344c-0.08416,0.07135 -0.18203,0.12623 -0.29363,0.16465c-0.1116,0.03842 -0.2296,0.05763 -0.354,0.05763c-0.1427,0 -0.26527,-0.02012 -0.36772,-0.06037c-0.10245,-0.04025 -0.19392,-0.10428 -0.27442,-0.19209c-0.0805,-0.08781 -0.15459,-0.20216 -0.22228,-0.34302c-0.06769,-0.14087 -0.13995,-0.31375 -0.21679,-0.51865l-0.26344,-0.69702h-3.10642l-0.22502,0.69702c-0.06586,0.20856 -0.13264,0.38419 -0.20033,0.52688c-0.06769,0.1427 -0.1427,0.25704 -0.22502,0.34302c-0.08233,0.08598 -0.17654,0.14819 -0.28265,0.1866c-0.10611,0.03842 -0.23051,0.05763 -0.37321,0.05763c-0.1244,0 -0.2424,-0.01921 -0.354,-0.05763c-0.1116,-0.03842 -0.20947,-0.0933 -0.29363,-0.16465c-0.08416,-0.07135 -0.15093,-0.15916 -0.20033,-0.26344c-0.0494,-0.10428 -0.07409,-0.22411 -0.07409,-0.35949c0,-0.05488 0.00823,-0.11617 0.0247,-0.18386c0.01647,-0.06769 0.0375,-0.13812 0.06312,-0.2113c0.02561,-0.07318 0.05305,-0.14544 0.08233,-0.21679c0.02927,-0.07135 0.05671,-0.13995 0.08233,-0.20581l1.47637,-3.99005c0.13904,-0.37321 0.27167,-0.70343 0.39791,-0.99065c0.12623,-0.28723 0.26527,-0.52963 0.41712,-0.72721c0.15185,-0.19758 0.32656,-0.34668 0.52414,-0.4473c0.19758,-0.10062 0.43724,-0.15093 0.71898,-0.15093c0.26344,0 0.48847,0.03933 0.67507,0.118c0.1866,0.07867 0.35492,0.20856 0.50493,0.38967c0.15002,0.18112 0.29271,0.41986 0.42809,0.71623c0.13538,0.29637 0.2854,0.66043 0.45005,1.09219z" data-paper-data="{&quot;glyphName&quot;:&quot;A&quot;,&quot;glyphIndex&quot;:3,&quot;firstGlyphOfWord&quot;:true,&quot;word&quot;:2}"></path><path d="M210.69085,255.79564c-0.10611,0 -0.20673,-0.01921 -0.30186,-0.05763c-0.09513,-0.03842 -0.17837,-0.09056 -0.24972,-0.15642c-0.07135,-0.06586 -0.12806,-0.1427 -0.17014,-0.23051c-0.04208,-0.08781 -0.06312,-0.18112 -0.06312,-0.27991c0,-0.09879 0.02104,-0.19301 0.06312,-0.28265c0.04208,-0.08964 0.09879,-0.1674 0.17014,-0.23326c0.07135,-0.06586 0.15459,-0.118 0.24972,-0.15642c0.09513,-0.03842 0.19575,-0.05763 0.30186,-0.05763h5.01089c0.10611,0 0.20673,0.01921 0.30186,0.05763c0.09513,0.03842 0.17837,0.09056 0.24972,0.15642c0.07135,0.06586 0.12806,0.14361 0.17014,0.23326c0.04208,0.08964 0.06312,0.18386 0.06312,0.28265c0,0.09879 -0.02104,0.19209 -0.06312,0.27991c-0.04208,0.08781 -0.09879,0.16465 -0.17014,0.23051c-0.07135,0.06586 -0.15459,0.118 -0.24972,0.15642c-0.09513,0.03842 -0.19575,0.05763 -0.30186,0.05763h-1.47089v5.44996c0,0.15002 -0.02653,0.28997 -0.07958,0.41986c-0.05305,0.12989 -0.12623,0.24332 -0.21954,0.34028c-0.0933,0.09696 -0.20124,0.17288 -0.32381,0.22777c-0.12257,0.05488 -0.25521,0.08233 -0.39791,0.08233c-0.1427,0 -0.27533,-0.02744 -0.39791,-0.08233c-0.12257,-0.05488 -0.2296,-0.13081 -0.32107,-0.22777c-0.09147,-0.09696 -0.16374,-0.21039 -0.21679,-0.34028c-0.05305,-0.12989 -0.07958,-0.26985 -0.07958,-0.41986v-5.44996z" data-paper-data="{&quot;glyphName&quot;:&quot;T&quot;,&quot;glyphIndex&quot;:4,&quot;lastGlyphOfWord&quot;:true,&quot;word&quot;:2}"></path><path d="M228.59028,255.84504l-1.20744,3.52903h2.43684l-1.20195,-3.52903zM232.1687,260.65286c0.02561,0.06586 0.05305,0.13447 0.08233,0.20581c0.02927,0.07135 0.05671,0.14361 0.08233,0.21679c0.02561,0.07318 0.04665,0.14361 0.06312,0.2113c0.01647,0.06769 0.0247,0.12898 0.0247,0.18386c0,0.13538 -0.0247,0.25521 -0.07409,0.35949c-0.0494,0.10428 -0.11617,0.19209 -0.20033,0.26344c-0.08416,0.07135 -0.18203,0.12623 -0.29363,0.16465c-0.1116,0.03842 -0.2296,0.05763 -0.354,0.05763c-0.1427,0 -0.26527,-0.02012 -0.36772,-0.06037c-0.10245,-0.04025 -0.19392,-0.10428 -0.27442,-0.19209c-0.0805,-0.08781 -0.15459,-0.20216 -0.22228,-0.34302c-0.06769,-0.14087 -0.13995,-0.31375 -0.21679,-0.51865l-0.26344,-0.69702h-3.10642l-0.22502,0.69702c-0.06586,0.20856 -0.13264,0.38419 -0.20033,0.52688c-0.06769,0.1427 -0.1427,0.25704 -0.22502,0.34302c-0.08233,0.08598 -0.17654,0.14819 -0.28265,0.1866c-0.10611,0.03842 -0.23051,0.05763 -0.37321,0.05763c-0.1244,0 -0.2424,-0.01921 -0.354,-0.05763c-0.1116,-0.03842 -0.20947,-0.0933 -0.29363,-0.16465c-0.08416,-0.07135 -0.15093,-0.15916 -0.20033,-0.26344c-0.0494,-0.10428 -0.07409,-0.22411 -0.07409,-0.35949c0,-0.05488 0.00823,-0.11617 0.0247,-0.18386c0.01647,-0.06769 0.0375,-0.13812 0.06312,-0.2113c0.02561,-0.07318 0.05305,-0.14544 0.08233,-0.21679c0.02927,-0.07135 0.05671,-0.13995 0.08233,-0.20581l1.47637,-3.99005c0.13904,-0.37321 0.27167,-0.70343 0.39791,-0.99065c0.12623,-0.28723 0.26527,-0.52963 0.41712,-0.72721c0.15185,-0.19758 0.32656,-0.34668 0.52414,-0.4473c0.19758,-0.10062 0.43724,-0.15093 0.71898,-0.15093c0.26344,0 0.48847,0.03933 0.67507,0.118c0.1866,0.07867 0.35492,0.20856 0.50493,0.38967c0.15002,0.18112 0.29271,0.41986 0.42809,0.71623c0.13538,0.29637 0.2854,0.66043 0.45005,1.09219z" data-paper-data="{&quot;glyphName&quot;:&quot;A&quot;,&quot;glyphIndex&quot;:5,&quot;firstGlyphOfWord&quot;:true,&quot;word&quot;:3}"></path><path d="M237.63879,261.45416c0,0.12074 -0.02287,0.23326 -0.0686,0.33754c-0.04574,0.10428 -0.10794,0.19484 -0.1866,0.27167c-0.07867,0.07684 -0.17014,0.13812 -0.27442,0.18386c-0.10428,0.04574 -0.21679,0.0686 -0.33754,0.0686c-0.12074,0 -0.23326,-0.02287 -0.33754,-0.0686c-0.10428,-0.04574 -0.19484,-0.10702 -0.27167,-0.18386c-0.07684,-0.07684 -0.13721,-0.1674 -0.18112,-0.27167c-0.04391,-0.10428 -0.06586,-0.21679 -0.06586,-0.33754v-5.99331c0,-0.17929 0.02653,-0.33845 0.07958,-0.47749c0.05305,-0.13904 0.1244,-0.25612 0.21405,-0.35126c0.08964,-0.09513 0.19484,-0.1674 0.31558,-0.21679c0.12074,-0.0494 0.25064,-0.07409 0.38967,-0.07409c0.11709,0 0.23143,0.02287 0.34302,0.0686c0.1116,0.04574 0.21862,0.10702 0.32107,0.18386c0.10245,0.07684 0.20124,0.1674 0.29637,0.27167c0.09513,0.10428 0.1866,0.21496 0.27442,0.33205l3.23814,4.3907v-4.38521c0,-0.12074 0.02195,-0.23326 0.06586,-0.33754c0.04391,-0.10428 0.10428,-0.19484 0.18112,-0.27167c0.07684,-0.07684 0.1674,-0.13812 0.27167,-0.18386c0.10428,-0.04574 0.21679,-0.0686 0.33754,-0.0686c0.12074,0 0.23326,0.02287 0.33754,0.0686c0.10428,0.04574 0.19484,0.10702 0.27167,0.18386c0.07684,0.07684 0.13812,0.1674 0.18386,0.27167c0.04574,0.10428 0.0686,0.21679 0.0686,0.33754v5.58717c0,0.20124 -0.01098,0.39425 -0.03293,0.57902c-0.02195,0.18478 -0.06769,0.34668 -0.13721,0.48572c-0.06952,0.13904 -0.16831,0.25064 -0.29637,0.33479c-0.12806,0.08416 -0.2982,0.12623 -0.51042,0.12623c-0.11343,0 -0.22411,-0.02195 -0.33205,-0.06586c-0.10794,-0.04391 -0.21222,-0.10428 -0.31284,-0.18112c-0.10062,-0.07684 -0.1985,-0.1674 -0.29363,-0.27167c-0.09513,-0.10428 -0.18843,-0.21679 -0.27991,-0.33754l-3.27107,-4.44559z" data-paper-data="{&quot;glyphName&quot;:&quot;N&quot;,&quot;glyphIndex&quot;:6,&quot;word&quot;:3}"></path><path d="M251.08349,261.2456c-0.00366,0.15002 -0.03293,0.28997 -0.08781,0.41986c-0.05488,0.12989 -0.12898,0.24332 -0.22228,0.34028c-0.0933,0.09696 -0.20124,0.17288 -0.32381,0.22777c-0.12257,0.05488 -0.25521,0.08233 -0.39791,0.08233c-0.1427,0 -0.27533,-0.02744 -0.39791,-0.08233c-0.12257,-0.05488 -0.2296,-0.13081 -0.32107,-0.22777c-0.09147,-0.09696 -0.16374,-0.21039 -0.21679,-0.34028c-0.05305,-0.12989 -0.07958,-0.26985 -0.07958,-0.41986v-1.9813l-2.01423,-3.36438c-0.06952,-0.11343 -0.11891,-0.22411 -0.14819,-0.33205c-0.02927,-0.10794 -0.04391,-0.21313 -0.04391,-0.31558c0,-0.13538 0.0247,-0.25887 0.07409,-0.37047c0.0494,-0.1116 0.11526,-0.20764 0.19758,-0.28814c0.08233,-0.0805 0.17746,-0.1427 0.2854,-0.1866c0.10794,-0.04391 0.22045,-0.06586 0.33754,-0.06586c0.17563,0 0.35126,0.05488 0.52688,0.16465c0.17563,0.10977 0.32381,0.29088 0.44456,0.54335l1.44344,2.87042h0.02195l1.50382,-2.89238c0.1244,-0.24149 0.27076,-0.41529 0.43907,-0.5214c0.16831,-0.10611 0.33845,-0.15916 0.51042,-0.15916c0.10245,0 0.20033,0.01829 0.29363,0.05488c0.0933,0.03659 0.17471,0.08781 0.24423,0.15367c0.06952,0.06586 0.1244,0.14636 0.16465,0.24149c0.04025,0.09513 0.06037,0.19941 0.06037,0.31284c0,0.09513 -0.01464,0.19484 -0.04391,0.29912c-0.02927,0.10428 -0.07867,0.21313 -0.14819,0.32656l-2.10205,3.4961z" data-paper-data="{&quot;glyphName&quot;:&quot;Y&quot;,&quot;glyphIndex&quot;:7,&quot;lastGlyphOfWord&quot;:true,&quot;word&quot;:3}"></path><path d="M261.93035,255.79564c-0.10611,0 -0.20673,-0.01921 -0.30186,-0.05763c-0.09513,-0.03842 -0.17837,-0.09056 -0.24972,-0.15642c-0.07135,-0.06586 -0.12806,-0.1427 -0.17014,-0.23051c-0.04208,-0.08781 -0.06312,-0.18112 -0.06312,-0.27991c0,-0.09879 0.02104,-0.19301 0.06312,-0.28265c0.04208,-0.08964 0.09879,-0.1674 0.17014,-0.23326c0.07135,-0.06586 0.15459,-0.118 0.24972,-0.15642c0.09513,-0.03842 0.19575,-0.05763 0.30186,-0.05763h5.01089c0.10611,0 0.20673,0.01921 0.30186,0.05763c0.09513,0.03842 0.17837,0.09056 0.24972,0.15642c0.07135,0.06586 0.12806,0.14361 0.17014,0.23326c0.04208,0.08964 0.06312,0.18386 0.06312,0.28265c0,0.09879 -0.02104,0.19209 -0.06312,0.27991c-0.04208,0.08781 -0.09879,0.16465 -0.17014,0.23051c-0.07135,0.06586 -0.15459,0.118 -0.24972,0.15642c-0.09513,0.03842 -0.19575,0.05763 -0.30186,0.05763h-1.47089v5.44996c0,0.15002 -0.02653,0.28997 -0.07958,0.41986c-0.05305,0.12989 -0.12623,0.24332 -0.21954,0.34028c-0.0933,0.09696 -0.20124,0.17288 -0.32381,0.22777c-0.12257,0.05488 -0.25521,0.08233 -0.39791,0.08233c-0.1427,0 -0.27533,-0.02744 -0.39791,-0.08233c-0.12257,-0.05488 -0.2296,-0.13081 -0.32107,-0.22777c-0.09147,-0.09696 -0.16374,-0.21039 -0.21679,-0.34028c-0.05305,-0.12989 -0.07958,-0.26985 -0.07958,-0.41986v-5.44996z" data-paper-data="{&quot;glyphName&quot;:&quot;T&quot;,&quot;glyphIndex&quot;:8,&quot;firstGlyphOfWord&quot;:true,&quot;word&quot;:4}"></path><path d="M273.09188,261.2456c0,0.15002 -0.02653,0.28997 -0.07958,0.41986c-0.05305,0.12989 -0.12623,0.24332 -0.21954,0.34028c-0.0933,0.09696 -0.20124,0.17288 -0.32381,0.22777c-0.12257,0.05488 -0.25521,0.08233 -0.39791,0.08233c-0.1427,0 -0.27533,-0.02744 -0.39791,-0.08233c-0.12257,-0.05488 -0.2296,-0.13081 -0.32107,-0.22777c-0.09147,-0.09696 -0.16374,-0.21039 -0.21679,-0.34028c-0.05305,-0.12989 -0.07958,-0.26985 -0.07958,-0.41986v-5.83415c0,-0.15002 0.02653,-0.28997 0.07958,-0.41986c0.05305,-0.12989 0.12532,-0.24332 0.21679,-0.34028c0.09147,-0.09696 0.1985,-0.17288 0.32107,-0.22777c0.12257,-0.05488 0.25521,-0.08233 0.39791,-0.08233c0.1427,0 0.27533,0.02744 0.39791,0.08233c0.12257,0.05488 0.23051,0.13081 0.32381,0.22777c0.0933,0.09696 0.16648,0.21039 0.21954,0.34028c0.05305,0.12989 0.07958,0.26985 0.07958,0.41986z" data-paper-data="{&quot;glyphName&quot;:&quot;I&quot;,&quot;glyphIndex&quot;:9,&quot;word&quot;:4}"></path><path d="M285.04374,256.26215c-0.32564,0.80496 -0.61653,1.52211 -0.87265,2.15144c-0.10977,0.27076 -0.21588,0.5342 -0.31833,0.79033c-0.10245,0.25612 -0.19484,0.48481 -0.27716,0.68605c-0.08233,0.20124 -0.1491,0.36406 -0.20033,0.48847l-0.07135,0.18112c-0.07684,0.1866 -0.15825,0.36406 -0.24423,0.53237c-0.08598,0.16831 -0.18386,0.31558 -0.29363,0.44181c-0.10977,0.12623 -0.23326,0.22685 -0.37047,0.30186c-0.13721,0.07501 -0.29546,0.11251 -0.47474,0.11251c-0.16465,0 -0.30918,-0.02836 -0.43358,-0.08507c-0.1244,-0.05671 -0.23874,-0.1427 -0.34302,-0.25795c-0.10428,-0.11526 -0.20216,-0.25978 -0.29363,-0.43358c-0.09147,-0.1738 -0.18295,-0.37595 -0.27442,-0.60647l-1.72884,-4.28094v5.23591c0,0.10977 -0.02104,0.21405 -0.06312,0.31284c-0.04208,0.09879 -0.09971,0.18386 -0.17288,0.25521c-0.07318,0.07135 -0.15916,0.12806 -0.25795,0.17014c-0.09879,0.04208 -0.20307,0.06312 -0.31284,0.06312c-0.10977,0 -0.21405,-0.02104 -0.31284,-0.06312c-0.09879,-0.04208 -0.18386,-0.09879 -0.25521,-0.17014c-0.07135,-0.07135 -0.12806,-0.15642 -0.17014,-0.25521c-0.04208,-0.09879 -0.06312,-0.20307 -0.06312,-0.31284v-5.06577c0,-0.31833 0.01647,-0.6083 0.0494,-0.86991c0.03293,-0.26161 0.09971,-0.48389 0.20033,-0.66684c0.10062,-0.18295 0.24149,-0.32473 0.42261,-0.42535c0.18112,-0.10062 0.41986,-0.15093 0.71623,-0.15093c0.21222,0 0.39791,0.03659 0.55707,0.10977c0.15916,0.07318 0.30735,0.19118 0.44456,0.354c0.13721,0.16282 0.27076,0.37412 0.40065,0.63391c0.12989,0.25978 0.27167,0.57445 0.42535,0.944l1.4654,3.54h0.04391l1.48186,-3.54c0.13172,-0.31467 0.2607,-0.59823 0.38693,-0.8507c0.12623,-0.25247 0.2607,-0.46651 0.4034,-0.64214c0.1427,-0.17563 0.2982,-0.31101 0.46651,-0.40614c0.16831,-0.09513 0.3604,-0.1427 0.57628,-0.1427c0.23417,0 0.43816,0.03476 0.61195,0.10428c0.1738,0.06952 0.3165,0.18112 0.42809,0.33479c0.1116,0.15367 0.19484,0.35217 0.24972,0.59549c0.05488,0.24332 0.08233,0.53695 0.08233,0.88088v5.26335c0,0.10977 -0.02104,0.21405 -0.06312,0.31284c-0.04208,0.09879 -0.09971,0.18386 -0.17288,0.25521c-0.07318,0.07135 -0.15916,0.12806 -0.25795,0.17014c-0.09879,0.04208 -0.20307,0.06312 -0.31284,0.06312c-0.10977,0 -0.21405,-0.02104 -0.31284,-0.06312c-0.09879,-0.04208 -0.18386,-0.09879 -0.25521,-0.17014c-0.07135,-0.07135 -0.12806,-0.15642 -0.17014,-0.25521c-0.04208,-0.09879 -0.06312,-0.20307 -0.06312,-0.31284z" data-paper-data="{&quot;glyphName&quot;:&quot;M&quot;,&quot;glyphIndex&quot;:10,&quot;word&quot;:4}"></path><path d="M291.7542,262.31583c-0.1866,0 -0.34302,-0.03842 -0.46926,-0.11526c-0.12623,-0.07684 -0.22777,-0.17654 -0.3046,-0.29912c-0.07684,-0.12257 -0.13172,-0.2607 -0.16465,-0.41437c-0.03293,-0.15367 -0.0494,-0.30735 -0.0494,-0.46102v-5.23042c0,-0.20856 0.01281,-0.40157 0.03842,-0.57902c0.02561,-0.17746 0.08233,-0.33022 0.17014,-0.45828c0.08781,-0.12806 0.21588,-0.22868 0.38419,-0.30186c0.16831,-0.07318 0.39516,-0.10977 0.68056,-0.10977h3.52354c0.10611,0 0.20581,0.01921 0.29912,0.05763c0.0933,0.03842 0.17471,0.08964 0.24423,0.15367c0.06952,0.06403 0.1244,0.13995 0.16465,0.22777c0.04025,0.08781 0.06037,0.18112 0.06037,0.27991c0,0.09879 -0.02012,0.19118 -0.06037,0.27716c-0.04025,0.08598 -0.09513,0.16099 -0.16465,0.22502c-0.06952,0.06403 -0.15093,0.11434 -0.24423,0.15093c-0.0933,0.03659 -0.19301,0.05488 -0.29912,0.05488h-2.82651v1.77823h2.57954c0.10611,0 0.20581,0.01829 0.29912,0.05488c0.0933,0.03659 0.17471,0.08781 0.24423,0.15367c0.06952,0.06586 0.1244,0.14178 0.16465,0.22777c0.04025,0.08598 0.06037,0.17837 0.06037,0.27716c0,0.09879 -0.02012,0.19118 -0.06037,0.27716c-0.04025,0.08598 -0.09513,0.16099 -0.16465,0.22502c-0.06952,0.06403 -0.15093,0.11434 -0.24423,0.15093c-0.0933,0.03659 -0.19301,0.05488 -0.29912,0.05488h-2.57954v1.92093h2.96372c0.09879,0 0.19118,0.01829 0.27716,0.05488c0.08598,0.03659 0.16191,0.08781 0.22777,0.15367c0.06586,0.06586 0.11709,0.14178 0.15367,0.22777c0.03659,0.08598 0.05488,0.17837 0.05488,0.27716c0,0.09879 -0.01829,0.19118 -0.05488,0.27716c-0.03659,0.08598 -0.08781,0.16099 -0.15367,0.22502c-0.06586,0.06403 -0.14178,0.11434 -0.22777,0.15093c-0.08598,0.03659 -0.17837,0.05488 -0.27716,0.05488z" data-paper-data="{&quot;glyphName&quot;:&quot;E&quot;,&quot;glyphIndex&quot;:11,&quot;word&quot;:4}"></path><path d="M301.11554,263.53974h-1.49833l0.63665,-2.85945h1.81116z" data-paper-data="{&quot;glyphName&quot;:&quot;,&quot;,&quot;glyphIndex&quot;:12,&quot;lastGlyphOfWord&quot;:true,&quot;word&quot;:4}"></path><path d="M314.66818,255.84504l-1.20744,3.52903h2.43684l-1.20195,-3.52903zM318.2466,260.65286c0.02561,0.06586 0.05305,0.13447 0.08233,0.20581c0.02927,0.07135 0.05671,0.14361 0.08233,0.21679c0.02561,0.07318 0.04665,0.14361 0.06312,0.2113c0.01647,0.06769 0.0247,0.12898 0.0247,0.18386c0,0.13538 -0.0247,0.25521 -0.07409,0.35949c-0.0494,0.10428 -0.11617,0.19209 -0.20033,0.26344c-0.08416,0.07135 -0.18203,0.12623 -0.29363,0.16465c-0.1116,0.03842 -0.2296,0.05763 -0.354,0.05763c-0.1427,0 -0.26527,-0.02012 -0.36772,-0.06037c-0.10245,-0.04025 -0.19392,-0.10428 -0.27442,-0.19209c-0.0805,-0.08781 -0.15459,-0.20216 -0.22228,-0.34302c-0.06769,-0.14087 -0.13995,-0.31375 -0.21679,-0.51865l-0.26344,-0.69702h-3.10642l-0.22502,0.69702c-0.06586,0.20856 -0.13264,0.38419 -0.20033,0.52688c-0.06769,0.1427 -0.1427,0.25704 -0.22502,0.34302c-0.08233,0.08598 -0.17654,0.14819 -0.28265,0.1866c-0.10611,0.03842 -0.23051,0.05763 -0.37321,0.05763c-0.1244,0 -0.2424,-0.01921 -0.354,-0.05763c-0.1116,-0.03842 -0.20947,-0.0933 -0.29363,-0.16465c-0.08416,-0.07135 -0.15093,-0.15916 -0.20033,-0.26344c-0.0494,-0.10428 -0.07409,-0.22411 -0.07409,-0.35949c0,-0.05488 0.00823,-0.11617 0.0247,-0.18386c0.01647,-0.06769 0.0375,-0.13812 0.06312,-0.2113c0.02561,-0.07318 0.05305,-0.14544 0.08233,-0.21679c0.02927,-0.07135 0.05671,-0.13995 0.08233,-0.20581l1.47637,-3.99005c0.13904,-0.37321 0.27167,-0.70343 0.39791,-0.99065c0.12623,-0.28723 0.26527,-0.52963 0.41712,-0.72721c0.15185,-0.19758 0.32656,-0.34668 0.52414,-0.4473c0.19758,-0.10062 0.43724,-0.15093 0.71898,-0.15093c0.26344,0 0.48847,0.03933 0.67507,0.118c0.1866,0.07867 0.35492,0.20856 0.50493,0.38967c0.15002,0.18112 0.29271,0.41986 0.42809,0.71623c0.13538,0.29637 0.2854,0.66043 0.45005,1.09219z" data-paper-data="{&quot;glyphName&quot;:&quot;A&quot;,&quot;glyphIndex&quot;:13,&quot;firstGlyphOfWord&quot;:true,&quot;word&quot;:5}"></path><path d="M323.71668,261.45416c0,0.12074 -0.02287,0.23326 -0.0686,0.33754c-0.04574,0.10428 -0.10794,0.19484 -0.1866,0.27167c-0.07867,0.07684 -0.17014,0.13812 -0.27442,0.18386c-0.10428,0.04574 -0.21679,0.0686 -0.33754,0.0686c-0.12074,0 -0.23326,-0.02287 -0.33754,-0.0686c-0.10428,-0.04574 -0.19484,-0.10702 -0.27167,-0.18386c-0.07684,-0.07684 -0.13721,-0.1674 -0.18112,-0.27167c-0.04391,-0.10428 -0.06586,-0.21679 -0.06586,-0.33754v-5.99331c0,-0.17929 0.02653,-0.33845 0.07958,-0.47749c0.05305,-0.13904 0.1244,-0.25612 0.21405,-0.35126c0.08964,-0.09513 0.19484,-0.1674 0.31558,-0.21679c0.12074,-0.0494 0.25064,-0.07409 0.38967,-0.07409c0.11709,0 0.23143,0.02287 0.34302,0.0686c0.1116,0.04574 0.21862,0.10702 0.32107,0.18386c0.10245,0.07684 0.20124,0.1674 0.29637,0.27167c0.09513,0.10428 0.1866,0.21496 0.27442,0.33205l3.23814,4.3907v-4.38521c0,-0.12074 0.02195,-0.23326 0.06586,-0.33754c0.04391,-0.10428 0.10428,-0.19484 0.18112,-0.27167c0.07684,-0.07684 0.1674,-0.13812 0.27167,-0.18386c0.10428,-0.04574 0.21679,-0.0686 0.33754,-0.0686c0.12074,0 0.23326,0.02287 0.33754,0.0686c0.10428,0.04574 0.19484,0.10702 0.27167,0.18386c0.07684,0.07684 0.13812,0.1674 0.18386,0.27167c0.04574,0.10428 0.0686,0.21679 0.0686,0.33754v5.58717c0,0.20124 -0.01098,0.39425 -0.03293,0.57902c-0.02195,0.18478 -0.06769,0.34668 -0.13721,0.48572c-0.06952,0.13904 -0.16831,0.25064 -0.29637,0.33479c-0.12806,0.08416 -0.2982,0.12623 -0.51042,0.12623c-0.11343,0 -0.22411,-0.02195 -0.33205,-0.06586c-0.10794,-0.04391 -0.21222,-0.10428 -0.31284,-0.18112c-0.10062,-0.07684 -0.1985,-0.1674 -0.29363,-0.27167c-0.09513,-0.10428 -0.18843,-0.21679 -0.27991,-0.33754l-3.27107,-4.44559z" data-paper-data="{&quot;glyphName&quot;:&quot;N&quot;,&quot;glyphIndex&quot;:14,&quot;word&quot;:5}"></path><path d="M337.16138,261.2456c-0.00366,0.15002 -0.03293,0.28997 -0.08781,0.41986c-0.05488,0.12989 -0.12898,0.24332 -0.22228,0.34028c-0.0933,0.09696 -0.20124,0.17288 -0.32381,0.22777c-0.12257,0.05488 -0.25521,0.08233 -0.39791,0.08233c-0.1427,0 -0.27533,-0.02744 -0.39791,-0.08233c-0.12257,-0.05488 -0.2296,-0.13081 -0.32107,-0.22777c-0.09147,-0.09696 -0.16374,-0.21039 -0.21679,-0.34028c-0.05305,-0.12989 -0.07958,-0.26985 -0.07958,-0.41986v-1.9813l-2.01423,-3.36438c-0.06952,-0.11343 -0.11891,-0.22411 -0.14819,-0.33205c-0.02927,-0.10794 -0.04391,-0.21313 -0.04391,-0.31558c0,-0.13538 0.0247,-0.25887 0.07409,-0.37047c0.0494,-0.1116 0.11526,-0.20764 0.19758,-0.28814c0.08233,-0.0805 0.17746,-0.1427 0.2854,-0.1866c0.10794,-0.04391 0.22045,-0.06586 0.33754,-0.06586c0.17563,0 0.35126,0.05488 0.52688,0.16465c0.17563,0.10977 0.32381,0.29088 0.44456,0.54335l1.44344,2.87042h0.02195l1.50382,-2.89238c0.1244,-0.24149 0.27076,-0.41529 0.43907,-0.5214c0.16831,-0.10611 0.33845,-0.15916 0.51042,-0.15916c0.10245,0 0.20033,0.01829 0.29363,0.05488c0.0933,0.03659 0.17471,0.08781 0.24423,0.15367c0.06952,0.06586 0.1244,0.14636 0.16465,0.24149c0.04025,0.09513 0.06037,0.19941 0.06037,0.31284c0,0.09513 -0.01464,0.19484 -0.04391,0.29912c-0.02927,0.10428 -0.07867,0.21313 -0.14819,0.32656l-2.10205,3.4961z" data-paper-data="{&quot;glyphName&quot;:&quot;Y&quot;,&quot;glyphIndex&quot;:15,&quot;word&quot;:5}"></path><path d="M348.01556,256.17983l-1.16354,4.53889c-0.0622,0.24515 -0.13447,0.46651 -0.21679,0.66409c-0.08233,0.19758 -0.18386,0.36498 -0.3046,0.50219c-0.12074,0.13721 -0.26802,0.24332 -0.44181,0.31833c-0.1738,0.07501 -0.38327,0.11251 -0.62842,0.11251c-0.38053,0 -0.68147,-0.11617 -0.90284,-0.34851c-0.22136,-0.23234 -0.39242,-0.59366 -0.51316,-1.08395l-1.31172,-5.29629c-0.02561,-0.09879 -0.03842,-0.19758 -0.03842,-0.29637c0,-0.1427 0.0247,-0.27259 0.07409,-0.38967c0.0494,-0.11709 0.11526,-0.21679 0.19758,-0.29912c0.08233,-0.08233 0.17654,-0.14636 0.28265,-0.19209c0.10611,-0.04574 0.21588,-0.0686 0.3293,-0.0686c0.09513,0 0.19026,0.01829 0.2854,0.05488c0.09513,0.03659 0.18386,0.0933 0.26619,0.17014c0.08233,0.07684 0.1555,0.17563 0.21954,0.29637c0.06403,0.12074 0.11434,0.26527 0.15093,0.43358l1.10316,5.21396l1.18549,-4.57731c0.05122,-0.20124 0.1116,-0.39791 0.18112,-0.59c0.06952,-0.19209 0.15733,-0.36223 0.26344,-0.51042c0.10611,-0.14819 0.23783,-0.2671 0.39516,-0.35674c0.15733,-0.08964 0.35126,-0.13447 0.58177,-0.13447c0.19758,0 0.37138,0.03567 0.5214,0.10702c0.15002,0.07135 0.28265,0.17471 0.39791,0.31009c0.11526,0.13538 0.21496,0.30186 0.29912,0.49944c0.08416,0.19758 0.16099,0.42261 0.23051,0.67507c0.20856,0.76471 0.41254,1.52668 0.61195,2.28591c0.19941,0.75923 0.40157,1.5212 0.60647,2.28591l1.09768,-5.27433c0.03293,-0.15002 0.08233,-0.28082 0.14819,-0.39242c0.06586,-0.1116 0.1427,-0.2049 0.23051,-0.27991c0.08781,-0.07501 0.18295,-0.13081 0.2854,-0.1674c0.10245,-0.03659 0.2049,-0.05488 0.30735,-0.05488c0.10245,0 0.20216,0.01829 0.29912,0.05488c0.09696,0.03659 0.18203,0.09239 0.25521,0.1674c0.07318,0.07501 0.13264,0.16648 0.17837,0.27442c0.04574,0.10794 0.0686,0.23326 0.0686,0.37595c0,0.11343 -0.01647,0.236 -0.0494,0.36772l-1.25684,5.11517c-0.05854,0.23417 -0.12715,0.45096 -0.20581,0.65037c-0.07867,0.19941 -0.17654,0.37138 -0.29363,0.51591c-0.11709,0.14453 -0.25704,0.25704 -0.41986,0.33754c-0.16282,0.0805 -0.35949,0.12074 -0.59,0.12074c-0.22685,0 -0.42261,-0.03659 -0.58726,-0.10977c-0.16465,-0.07318 -0.30918,-0.18386 -0.43358,-0.33205c-0.1244,-0.14819 -0.23234,-0.33571 -0.32381,-0.56256c-0.09147,-0.22685 -0.17746,-0.49395 -0.25795,-0.8013z" data-paper-data="{&quot;glyphName&quot;:&quot;W&quot;,&quot;glyphIndex&quot;:16,&quot;word&quot;:5}"></path><path d="M361.77859,255.41145c0,-0.15002 0.02744,-0.28997 0.08233,-0.41986c0.05488,-0.12989 0.12806,-0.24332 0.21954,-0.34028c0.09147,-0.09696 0.1985,-0.17288 0.32107,-0.22777c0.12257,-0.05488 0.25521,-0.08233 0.39791,-0.08233c0.1427,0 0.27533,0.02744 0.39791,0.08233c0.12257,0.05488 0.23051,0.13081 0.32381,0.22777c0.0933,0.09696 0.16648,0.21039 0.21954,0.34028c0.05305,0.12989 0.07958,0.26985 0.07958,0.41986v5.83415c0,0.15002 -0.02653,0.28997 -0.07958,0.41986c-0.05305,0.12989 -0.12623,0.24332 -0.21954,0.34028c-0.0933,0.09696 -0.20124,0.17288 -0.32381,0.22777c-0.12257,0.05488 -0.25521,0.08233 -0.39791,0.08233c-0.1427,0 -0.27533,-0.02744 -0.39791,-0.08233c-0.12257,-0.05488 -0.2296,-0.13081 -0.32107,-0.22777c-0.09147,-0.09696 -0.16374,-0.21039 -0.21679,-0.34028c-0.05305,-0.12989 -0.07958,-0.26985 -0.07958,-0.41986l-0.00549,-2.2667h-2.82651v2.2667c0,0.15002 -0.02653,0.28997 -0.07958,0.41986c-0.05305,0.12989 -0.12623,0.24332 -0.21954,0.34028c-0.0933,0.09696 -0.20124,0.17288 -0.32381,0.22777c-0.12257,0.05488 -0.25521,0.08233 -0.39791,0.08233c-0.1427,0 -0.27533,-0.02744 -0.39791,-0.08233c-0.12257,-0.05488 -0.2296,-0.13081 -0.32107,-0.22777c-0.09147,-0.09696 -0.16374,-0.21039 -0.21679,-0.34028c-0.05305,-0.12989 -0.07958,-0.26985 -0.07958,-0.41986v-5.83415c0,-0.15002 0.02653,-0.28997 0.07958,-0.41986c0.05305,-0.12989 0.12532,-0.24332 0.21679,-0.34028c0.09147,-0.09696 0.1985,-0.17288 0.32107,-0.22777c0.12257,-0.05488 0.25521,-0.08233 0.39791,-0.08233c0.1427,0 0.27533,0.02744 0.39791,0.08233c0.12257,0.05488 0.23051,0.13081 0.32381,0.22777c0.0933,0.09696 0.16648,0.21039 0.21954,0.34028c0.05305,0.12989 0.07958,0.26985 0.07958,0.41986v2.00326h2.82651z" data-paper-data="{&quot;glyphName&quot;:&quot;H&quot;,&quot;glyphIndex&quot;:17,&quot;word&quot;:5}"></path><path d="M368.81286,262.31583c-0.1866,0 -0.34302,-0.03842 -0.46926,-0.11526c-0.12623,-0.07684 -0.22777,-0.17654 -0.3046,-0.29912c-0.07684,-0.12257 -0.13172,-0.2607 -0.16465,-0.41437c-0.03293,-0.15367 -0.0494,-0.30735 -0.0494,-0.46102v-5.23042c0,-0.20856 0.01281,-0.40157 0.03842,-0.57902c0.02561,-0.17746 0.08233,-0.33022 0.17014,-0.45828c0.08781,-0.12806 0.21588,-0.22868 0.38419,-0.30186c0.16831,-0.07318 0.39516,-0.10977 0.68056,-0.10977h3.52354c0.10611,0 0.20581,0.01921 0.29912,0.05763c0.0933,0.03842 0.17471,0.08964 0.24423,0.15367c0.06952,0.06403 0.1244,0.13995 0.16465,0.22777c0.04025,0.08781 0.06037,0.18112 0.06037,0.27991c0,0.09879 -0.02012,0.19118 -0.06037,0.27716c-0.04025,0.08598 -0.09513,0.16099 -0.16465,0.22502c-0.06952,0.06403 -0.15093,0.11434 -0.24423,0.15093c-0.0933,0.03659 -0.19301,0.05488 -0.29912,0.05488h-2.82651v1.77823h2.57954c0.10611,0 0.20581,0.01829 0.29912,0.05488c0.0933,0.03659 0.17471,0.08781 0.24423,0.15367c0.06952,0.06586 0.1244,0.14178 0.16465,0.22777c0.04025,0.08598 0.06037,0.17837 0.06037,0.27716c0,0.09879 -0.02012,0.19118 -0.06037,0.27716c-0.04025,0.08598 -0.09513,0.16099 -0.16465,0.22502c-0.06952,0.06403 -0.15093,0.11434 -0.24423,0.15093c-0.0933,0.03659 -0.19301,0.05488 -0.29912,0.05488h-2.57954v1.92093h2.96372c0.09879,0 0.19118,0.01829 0.27716,0.05488c0.08598,0.03659 0.16191,0.08781 0.22777,0.15367c0.06586,0.06586 0.11709,0.14178 0.15367,0.22777c0.03659,0.08598 0.05488,0.17837 0.05488,0.27716c0,0.09879 -0.01829,0.19118 -0.05488,0.27716c-0.03659,0.08598 -0.08781,0.16099 -0.15367,0.22502c-0.06586,0.06403 -0.14178,0.11434 -0.22777,0.15093c-0.08598,0.03659 -0.17837,0.05488 -0.27716,0.05488z" data-paper-data="{&quot;glyphName&quot;:&quot;E&quot;,&quot;glyphIndex&quot;:18,&quot;word&quot;:5}"></path><path d="M379.18955,261.2456c0,0.15002 -0.02653,0.28997 -0.07958,0.41986c-0.05305,0.12989 -0.12623,0.24332 -0.21954,0.34028c-0.0933,0.09696 -0.20124,0.17288 -0.32381,0.22777c-0.12257,0.05488 -0.25521,0.08233 -0.39791,0.08233c-0.1427,0 -0.27533,-0.02744 -0.39791,-0.08233c-0.12257,-0.05488 -0.2296,-0.13081 -0.32107,-0.22777c-0.09147,-0.09696 -0.16374,-0.21039 -0.21679,-0.34028c-0.05305,-0.12989 -0.07958,-0.26985 -0.07958,-0.41986v-5.89452c0,-0.16831 0.03384,-0.31558 0.10153,-0.44181c0.06769,-0.12623 0.15825,-0.23143 0.27167,-0.31558c0.11343,-0.08416 0.24606,-0.14727 0.39791,-0.18935c0.15185,-0.04208 0.31192,-0.06312 0.48023,-0.06312h2.20084c0.40614,0 0.79581,0.02653 1.16902,0.07958c0.37321,0.05305 0.7016,0.15276 0.98516,0.29912c0.28357,0.14636 0.51042,0.34943 0.68056,0.60921c0.17014,0.25978 0.25521,0.59823 0.25521,1.01535c0,0.22685 -0.0311,0.44181 -0.0933,0.64488c-0.0622,0.20307 -0.16282,0.38602 -0.30186,0.54884c-0.13904,0.16282 -0.32107,0.30186 -0.54609,0.41712c-0.22502,0.11526 -0.50036,0.20033 -0.826,0.25521v0.02195c0.23417,0.02927 0.4345,0.07226 0.60098,0.12898c0.16648,0.05671 0.30826,0.13172 0.42535,0.22502c0.11709,0.0933 0.21222,0.20581 0.2854,0.33754c0.07318,0.13172 0.13355,0.28723 0.18112,0.46651c0.04757,0.17929 0.08598,0.38327 0.11526,0.61195c0.02927,0.22868 0.05671,0.48755 0.08233,0.77661c0.00732,0.0805 0.01281,0.15825 0.01647,0.23326c0.00366,0.07501 0.00549,0.1491 0.00549,0.22228c0,0.15733 -0.01464,0.30186 -0.04391,0.43358c-0.02927,0.13172 -0.0805,0.24515 -0.15367,0.34028c-0.07318,0.09513 -0.1738,0.16922 -0.30186,0.22228c-0.12806,0.05305 -0.29271,0.07958 -0.49395,0.07958c-0.18295,0 -0.33571,-0.04208 -0.45828,-0.12623c-0.12257,-0.08416 -0.22411,-0.19941 -0.3046,-0.34577c-0.0805,-0.14636 -0.14178,-0.31558 -0.18386,-0.50767c-0.04208,-0.19209 -0.07592,-0.39791 -0.10153,-0.61744c-0.03659,-0.31833 -0.07409,-0.58451 -0.11251,-0.79856c-0.03842,-0.21405 -0.09971,-0.38693 -0.18386,-0.51865c-0.08416,-0.13172 -0.20398,-0.22502 -0.35949,-0.27991c-0.1555,-0.05488 -0.36864,-0.08233 -0.6394,-0.08233h-1.11414zM380.03476,257.76048c0.19758,0 0.39516,-0.01189 0.59274,-0.03567c0.19758,-0.02378 0.37595,-0.07318 0.53512,-0.14819c0.15916,-0.07501 0.28814,-0.18478 0.38693,-0.3293c0.09879,-0.14453 0.14819,-0.33754 0.14819,-0.57902c0,-0.27808 -0.04757,-0.48664 -0.1427,-0.62568c-0.09513,-0.13904 -0.22136,-0.24332 -0.3787,-0.31284c-0.15733,-0.06952 -0.33936,-0.11251 -0.54609,-0.12898c-0.20673,-0.01647 -0.42169,-0.0247 -0.64488,-0.0247h-0.82875v2.18437z" data-paper-data="{&quot;glyphName&quot;:&quot;R&quot;,&quot;glyphIndex&quot;:19,&quot;word&quot;:5}"></path><path d="M388.51248,262.31583c-0.1866,0 -0.34302,-0.03842 -0.46926,-0.11526c-0.12623,-0.07684 -0.22777,-0.17654 -0.3046,-0.29912c-0.07684,-0.12257 -0.13172,-0.2607 -0.16465,-0.41437c-0.03293,-0.15367 -0.0494,-0.30735 -0.0494,-0.46102v-5.23042c0,-0.20856 0.01281,-0.40157 0.03842,-0.57902c0.02561,-0.17746 0.08233,-0.33022 0.17014,-0.45828c0.08781,-0.12806 0.21588,-0.22868 0.38419,-0.30186c0.16831,-0.07318 0.39516,-0.10977 0.68056,-0.10977h3.52354c0.10611,0 0.20581,0.01921 0.29912,0.05763c0.0933,0.03842 0.17471,0.08964 0.24423,0.15367c0.06952,0.06403 0.1244,0.13995 0.16465,0.22777c0.04025,0.08781 0.06037,0.18112 0.06037,0.27991c0,0.09879 -0.02012,0.19118 -0.06037,0.27716c-0.04025,0.08598 -0.09513,0.16099 -0.16465,0.22502c-0.06952,0.06403 -0.15093,0.11434 -0.24423,0.15093c-0.0933,0.03659 -0.19301,0.05488 -0.29912,0.05488h-2.82651v1.77823h2.57954c0.10611,0 0.20581,0.01829 0.29912,0.05488c0.0933,0.03659 0.17471,0.08781 0.24423,0.15367c0.06952,0.06586 0.1244,0.14178 0.16465,0.22777c0.04025,0.08598 0.06037,0.17837 0.06037,0.27716c0,0.09879 -0.02012,0.19118 -0.06037,0.27716c-0.04025,0.08598 -0.09513,0.16099 -0.16465,0.22502c-0.06952,0.06403 -0.15093,0.11434 -0.24423,0.15093c-0.0933,0.03659 -0.19301,0.05488 -0.29912,0.05488h-2.57954v1.92093h2.96372c0.09879,0 0.19118,0.01829 0.27716,0.05488c0.08598,0.03659 0.16191,0.08781 0.22777,0.15367c0.06586,0.06586 0.11709,0.14178 0.15367,0.22777c0.03659,0.08598 0.05488,0.17837 0.05488,0.27716c0,0.09879 -0.01829,0.19118 -0.05488,0.27716c-0.03659,0.08598 -0.08781,0.16099 -0.15367,0.22502c-0.06586,0.06403 -0.14178,0.11434 -0.22777,0.15093c-0.08598,0.03659 -0.17837,0.05488 -0.27716,0.05488z" data-paper-data="{&quot;glyphName&quot;:&quot;E&quot;,&quot;glyphIndex&quot;:20,&quot;word&quot;:5}"></path><path d="M397.87382,263.53974h-1.49833l0.63665,-2.85945h1.81116z" data-paper-data="{&quot;glyphName&quot;:&quot;,&quot;,&quot;glyphIndex&quot;:21,&quot;lastGlyphOfWord&quot;:true,&quot;word&quot;:5}"></path><path d="M411.42646,255.84504l-1.20744,3.52903h2.43684l-1.20195,-3.52903zM415.00488,260.65286c0.02561,0.06586 0.05305,0.13447 0.08233,0.20581c0.02927,0.07135 0.05671,0.14361 0.08233,0.21679c0.02561,0.07318 0.04665,0.14361 0.06312,0.2113c0.01647,0.06769 0.0247,0.12898 0.0247,0.18386c0,0.13538 -0.0247,0.25521 -0.07409,0.35949c-0.0494,0.10428 -0.11617,0.19209 -0.20033,0.26344c-0.08416,0.07135 -0.18203,0.12623 -0.29363,0.16465c-0.1116,0.03842 -0.2296,0.05763 -0.354,0.05763c-0.1427,0 -0.26527,-0.02012 -0.36772,-0.06037c-0.10245,-0.04025 -0.19392,-0.10428 -0.27442,-0.19209c-0.0805,-0.08781 -0.15459,-0.20216 -0.22228,-0.34302c-0.06769,-0.14087 -0.13995,-0.31375 -0.21679,-0.51865l-0.26344,-0.69702h-3.10642l-0.22502,0.69702c-0.06586,0.20856 -0.13264,0.38419 -0.20033,0.52688c-0.06769,0.1427 -0.1427,0.25704 -0.22502,0.34302c-0.08233,0.08598 -0.17654,0.14819 -0.28265,0.1866c-0.10611,0.03842 -0.23051,0.05763 -0.37321,0.05763c-0.1244,0 -0.2424,-0.01921 -0.354,-0.05763c-0.1116,-0.03842 -0.20947,-0.0933 -0.29363,-0.16465c-0.08416,-0.07135 -0.15093,-0.15916 -0.20033,-0.26344c-0.0494,-0.10428 -0.07409,-0.22411 -0.07409,-0.35949c0,-0.05488 0.00823,-0.11617 0.0247,-0.18386c0.01647,-0.06769 0.0375,-0.13812 0.06312,-0.2113c0.02561,-0.07318 0.05305,-0.14544 0.08233,-0.21679c0.02927,-0.07135 0.05671,-0.13995 0.08233,-0.20581l1.47637,-3.99005c0.13904,-0.37321 0.27167,-0.70343 0.39791,-0.99065c0.12623,-0.28723 0.26527,-0.52963 0.41712,-0.72721c0.15185,-0.19758 0.32656,-0.34668 0.52414,-0.4473c0.19758,-0.10062 0.43724,-0.15093 0.71898,-0.15093c0.26344,0 0.48847,0.03933 0.67507,0.118c0.1866,0.07867 0.35492,0.20856 0.50493,0.38967c0.15002,0.18112 0.29271,0.41986 0.42809,0.71623c0.13538,0.29637 0.2854,0.66043 0.45005,1.09219z" data-paper-data="{&quot;glyphName&quot;:&quot;A&quot;,&quot;glyphIndex&quot;:22,&quot;firstGlyphOfWord&quot;:true,&quot;word&quot;:6}"></path><path d="M420.47497,261.45416c0,0.12074 -0.02287,0.23326 -0.0686,0.33754c-0.04574,0.10428 -0.10794,0.19484 -0.1866,0.27167c-0.07867,0.07684 -0.17014,0.13812 -0.27442,0.18386c-0.10428,0.04574 -0.21679,0.0686 -0.33754,0.0686c-0.12074,0 -0.23326,-0.02287 -0.33754,-0.0686c-0.10428,-0.04574 -0.19484,-0.10702 -0.27167,-0.18386c-0.07684,-0.07684 -0.13721,-0.1674 -0.18112,-0.27167c-0.04391,-0.10428 -0.06586,-0.21679 -0.06586,-0.33754v-5.99331c0,-0.17929 0.02653,-0.33845 0.07958,-0.47749c0.05305,-0.13904 0.1244,-0.25612 0.21405,-0.35126c0.08964,-0.09513 0.19484,-0.1674 0.31558,-0.21679c0.12074,-0.0494 0.25064,-0.07409 0.38967,-0.07409c0.11709,0 0.23143,0.02287 0.34302,0.0686c0.1116,0.04574 0.21862,0.10702 0.32107,0.18386c0.10245,0.07684 0.20124,0.1674 0.29637,0.27167c0.09513,0.10428 0.1866,0.21496 0.27442,0.33205l3.23814,4.3907v-4.38521c0,-0.12074 0.02195,-0.23326 0.06586,-0.33754c0.04391,-0.10428 0.10428,-0.19484 0.18112,-0.27167c0.07684,-0.07684 0.1674,-0.13812 0.27167,-0.18386c0.10428,-0.04574 0.21679,-0.0686 0.33754,-0.0686c0.12074,0 0.23326,0.02287 0.33754,0.0686c0.10428,0.04574 0.19484,0.10702 0.27167,0.18386c0.07684,0.07684 0.13812,0.1674 0.18386,0.27167c0.04574,0.10428 0.0686,0.21679 0.0686,0.33754v5.58717c0,0.20124 -0.01098,0.39425 -0.03293,0.57902c-0.02195,0.18478 -0.06769,0.34668 -0.13721,0.48572c-0.06952,0.13904 -0.16831,0.25064 -0.29637,0.33479c-0.12806,0.08416 -0.2982,0.12623 -0.51042,0.12623c-0.11343,0 -0.22411,-0.02195 -0.33205,-0.06586c-0.10794,-0.04391 -0.21222,-0.10428 -0.31284,-0.18112c-0.10062,-0.07684 -0.1985,-0.1674 -0.29363,-0.27167c-0.09513,-0.10428 -0.18843,-0.21679 -0.27991,-0.33754l-3.27107,-4.44559z" data-paper-data="{&quot;glyphName&quot;:&quot;N&quot;,&quot;glyphIndex&quot;:23,&quot;word&quot;:6}"></path><path d="M433.91966,261.2456c-0.00366,0.15002 -0.03293,0.28997 -0.08781,0.41986c-0.05488,0.12989 -0.12898,0.24332 -0.22228,0.34028c-0.0933,0.09696 -0.20124,0.17288 -0.32381,0.22777c-0.12257,0.05488 -0.25521,0.08233 -0.39791,0.08233c-0.1427,0 -0.27533,-0.02744 -0.39791,-0.08233c-0.12257,-0.05488 -0.2296,-0.13081 -0.32107,-0.22777c-0.09147,-0.09696 -0.16374,-0.21039 -0.21679,-0.34028c-0.05305,-0.12989 -0.07958,-0.26985 -0.07958,-0.41986v-1.9813l-2.01423,-3.36438c-0.06952,-0.11343 -0.11891,-0.22411 -0.14819,-0.33205c-0.02927,-0.10794 -0.04391,-0.21313 -0.04391,-0.31558c0,-0.13538 0.0247,-0.25887 0.07409,-0.37047c0.0494,-0.1116 0.11526,-0.20764 0.19758,-0.28814c0.08233,-0.0805 0.17746,-0.1427 0.2854,-0.1866c0.10794,-0.04391 0.22045,-0.06586 0.33754,-0.06586c0.17563,0 0.35126,0.05488 0.52688,0.16465c0.17563,0.10977 0.32381,0.29088 0.44456,0.54335l1.44344,2.87042h0.02195l1.50382,-2.89238c0.1244,-0.24149 0.27076,-0.41529 0.43907,-0.5214c0.16831,-0.10611 0.33845,-0.15916 0.51042,-0.15916c0.10245,0 0.20033,0.01829 0.29363,0.05488c0.0933,0.03659 0.17471,0.08781 0.24423,0.15367c0.06952,0.06586 0.1244,0.14636 0.16465,0.24149c0.04025,0.09513 0.06037,0.19941 0.06037,0.31284c0,0.09513 -0.01464,0.19484 -0.04391,0.29912c-0.02927,0.10428 -0.07867,0.21313 -0.14819,0.32656l-2.10205,3.4961z" data-paper-data="{&quot;glyphName&quot;:&quot;Y&quot;,&quot;glyphIndex&quot;:24,&quot;lastGlyphOfWord&quot;:true,&quot;word&quot;:6}"></path><path d="M444.76653,255.79564c-0.10611,0 -0.20673,-0.01921 -0.30186,-0.05763c-0.09513,-0.03842 -0.17837,-0.09056 -0.24972,-0.15642c-0.07135,-0.06586 -0.12806,-0.1427 -0.17014,-0.23051c-0.04208,-0.08781 -0.06312,-0.18112 -0.06312,-0.27991c0,-0.09879 0.02104,-0.19301 0.06312,-0.28265c0.04208,-0.08964 0.09879,-0.1674 0.17014,-0.23326c0.07135,-0.06586 0.15459,-0.118 0.24972,-0.15642c0.09513,-0.03842 0.19575,-0.05763 0.30186,-0.05763h5.01089c0.10611,0 0.20673,0.01921 0.30186,0.05763c0.09513,0.03842 0.17837,0.09056 0.24972,0.15642c0.07135,0.06586 0.12806,0.14361 0.17014,0.23326c0.04208,0.08964 0.06312,0.18386 0.06312,0.28265c0,0.09879 -0.02104,0.19209 -0.06312,0.27991c-0.04208,0.08781 -0.09879,0.16465 -0.17014,0.23051c-0.07135,0.06586 -0.15459,0.118 -0.24972,0.15642c-0.09513,0.03842 -0.19575,0.05763 -0.30186,0.05763h-1.47089v5.44996c0,0.15002 -0.02653,0.28997 -0.07958,0.41986c-0.05305,0.12989 -0.12623,0.24332 -0.21954,0.34028c-0.0933,0.09696 -0.20124,0.17288 -0.32381,0.22777c-0.12257,0.05488 -0.25521,0.08233 -0.39791,0.08233c-0.1427,0 -0.27533,-0.02744 -0.39791,-0.08233c-0.12257,-0.05488 -0.2296,-0.13081 -0.32107,-0.22777c-0.09147,-0.09696 -0.16374,-0.21039 -0.21679,-0.34028c-0.05305,-0.12989 -0.07958,-0.26985 -0.07958,-0.41986v-5.44996z" data-paper-data="{&quot;glyphName&quot;:&quot;T&quot;,&quot;glyphIndex&quot;:25,&quot;firstGlyphOfWord&quot;:true,&quot;word&quot;:7}"></path><path d="M457.86546,261.2456c-0.00366,0.15002 -0.03293,0.28997 -0.08781,0.41986c-0.05488,0.12989 -0.12898,0.24332 -0.22228,0.34028c-0.0933,0.09696 -0.20124,0.17288 -0.32381,0.22777c-0.12257,0.05488 -0.25521,0.08233 -0.39791,0.08233c-0.1427,0 -0.27533,-0.02744 -0.39791,-0.08233c-0.12257,-0.05488 -0.2296,-0.13081 -0.32107,-0.22777c-0.09147,-0.09696 -0.16374,-0.21039 -0.21679,-0.34028c-0.05305,-0.12989 -0.07958,-0.26985 -0.07958,-0.41986v-1.9813l-2.01423,-3.36438c-0.06952,-0.11343 -0.11891,-0.22411 -0.14819,-0.33205c-0.02927,-0.10794 -0.04391,-0.21313 -0.04391,-0.31558c0,-0.13538 0.0247,-0.25887 0.07409,-0.37047c0.0494,-0.1116 0.11526,-0.20764 0.19758,-0.28814c0.08233,-0.0805 0.17746,-0.1427 0.2854,-0.1866c0.10794,-0.04391 0.22045,-0.06586 0.33754,-0.06586c0.17563,0 0.35126,0.05488 0.52688,0.16465c0.17563,0.10977 0.32381,0.29088 0.44456,0.54335l1.44344,2.87042h0.02195l1.50382,-2.89238c0.1244,-0.24149 0.27076,-0.41529 0.43907,-0.5214c0.16831,-0.10611 0.33845,-0.15916 0.51042,-0.15916c0.10245,0 0.20033,0.01829 0.29363,0.05488c0.0933,0.03659 0.17471,0.08781 0.24423,0.15367c0.06952,0.06586 0.1244,0.14636 0.16465,0.24149c0.04025,0.09513 0.06037,0.19941 0.06037,0.31284c0,0.09513 -0.01464,0.19484 -0.04391,0.29912c-0.02927,0.10428 -0.07867,0.21313 -0.14819,0.32656l-2.10205,3.4961z" data-paper-data="{&quot;glyphName&quot;:&quot;Y&quot;,&quot;glyphIndex&quot;:26,&quot;word&quot;:7}"></path><path d="M465.87117,261.2456c0,0.15002 -0.02744,0.28997 -0.08233,0.41986c-0.05488,0.12989 -0.12898,0.24332 -0.22228,0.34028c-0.0933,0.09696 -0.20124,0.17288 -0.32381,0.22777c-0.12257,0.05488 -0.25521,0.08233 -0.39791,0.08233c-0.1427,0 -0.27533,-0.02744 -0.39791,-0.08233c-0.12257,-0.05488 -0.2296,-0.13081 -0.32107,-0.22777c-0.09147,-0.09696 -0.16374,-0.21039 -0.21679,-0.34028c-0.05305,-0.12989 -0.07958,-0.26985 -0.07958,-0.41986v-5.39508c0,-0.20856 0.01372,-0.40523 0.04116,-0.59c0.02744,-0.18478 0.08598,-0.34485 0.17563,-0.48023c0.08964,-0.13538 0.22136,-0.2424 0.39516,-0.32107c0.1738,-0.07867 0.40888,-0.118 0.70526,-0.118h1.9813c0.42078,0 0.826,0.03659 1.21568,0.10977c0.38967,0.07318 0.73453,0.20216 1.03456,0.38693c0.30003,0.18478 0.53969,0.43633 0.71898,0.75465c0.17929,0.31833 0.26893,0.72081 0.26893,1.20744c0,0.42078 -0.07775,0.78575 -0.23326,1.09493c-0.1555,0.30918 -0.37504,0.56622 -0.65861,0.77112c-0.28357,0.2049 -0.62476,0.35766 -1.02358,0.45828c-0.39882,0.10062 -0.83972,0.15093 -1.3227,0.15093h-1.25684zM466.79322,258.05136c0.23417,0 0.44822,-0.02012 0.64214,-0.06037c0.19392,-0.04025 0.35949,-0.10702 0.4967,-0.20033c0.13721,-0.0933 0.24423,-0.21679 0.32107,-0.37047c0.07684,-0.15367 0.11526,-0.3604 0.11526,-0.62019c0,-0.25612 -0.03659,-0.45828 -0.10977,-0.60647c-0.07318,-0.14819 -0.17471,-0.26802 -0.3046,-0.35949c-0.12989,-0.09147 -0.2854,-0.15733 -0.46651,-0.19758c-0.18112,-0.04025 -0.38144,-0.06037 -0.60098,-0.06037h-1.01535v2.47526z" data-paper-data="{&quot;glyphName&quot;:&quot;P&quot;,&quot;glyphIndex&quot;:27,&quot;word&quot;:7}"></path><path d="M474.80442,262.31583c-0.1866,0 -0.34302,-0.03842 -0.46926,-0.11526c-0.12623,-0.07684 -0.22777,-0.17654 -0.3046,-0.29912c-0.07684,-0.12257 -0.13172,-0.2607 -0.16465,-0.41437c-0.03293,-0.15367 -0.0494,-0.30735 -0.0494,-0.46102v-5.23042c0,-0.20856 0.01281,-0.40157 0.03842,-0.57902c0.02561,-0.17746 0.08233,-0.33022 0.17014,-0.45828c0.08781,-0.12806 0.21588,-0.22868 0.38419,-0.30186c0.16831,-0.07318 0.39516,-0.10977 0.68056,-0.10977h3.52354c0.10611,0 0.20581,0.01921 0.29912,0.05763c0.0933,0.03842 0.17471,0.08964 0.24423,0.15367c0.06952,0.06403 0.1244,0.13995 0.16465,0.22777c0.04025,0.08781 0.06037,0.18112 0.06037,0.27991c0,0.09879 -0.02012,0.19118 -0.06037,0.27716c-0.04025,0.08598 -0.09513,0.16099 -0.16465,0.22502c-0.06952,0.06403 -0.15093,0.11434 -0.24423,0.15093c-0.0933,0.03659 -0.19301,0.05488 -0.29912,0.05488h-2.82651v1.77823h2.57954c0.10611,0 0.20581,0.01829 0.29912,0.05488c0.0933,0.03659 0.17471,0.08781 0.24423,0.15367c0.06952,0.06586 0.1244,0.14178 0.16465,0.22777c0.04025,0.08598 0.06037,0.17837 0.06037,0.27716c0,0.09879 -0.02012,0.19118 -0.06037,0.27716c-0.04025,0.08598 -0.09513,0.16099 -0.16465,0.22502c-0.06952,0.06403 -0.15093,0.11434 -0.24423,0.15093c-0.0933,0.03659 -0.19301,0.05488 -0.29912,0.05488h-2.57954v1.92093h2.96372c0.09879,0 0.19118,0.01829 0.27716,0.05488c0.08598,0.03659 0.16191,0.08781 0.22777,0.15367c0.06586,0.06586 0.11709,0.14178 0.15367,0.22777c0.03659,0.08598 0.05488,0.17837 0.05488,0.27716c0,0.09879 -0.01829,0.19118 -0.05488,0.27716c-0.03659,0.08598 -0.08781,0.16099 -0.15367,0.22502c-0.06586,0.06403 -0.14178,0.11434 -0.22777,0.15093c-0.08598,0.03659 -0.17837,0.05488 -0.27716,0.05488z" data-paper-data="{&quot;glyphName&quot;:&quot;E&quot;,&quot;glyphIndex&quot;:28,&quot;word&quot;:7}"></path><path d="M483.14493,261.44867c0,-0.12074 0.02287,-0.23509 0.0686,-0.34302c0.04574,-0.10794 0.10977,-0.20307 0.19209,-0.2854c0.08233,-0.08233 0.1802,-0.14819 0.29363,-0.19758c0.11343,-0.0494 0.23783,-0.07409 0.37321,-0.07409c0.12074,0 0.23691,0.02195 0.34851,0.06586c0.1116,0.04391 0.21039,0.10519 0.29637,0.18386c0.08598,0.07867 0.15459,0.17288 0.20581,0.28265c0.05122,0.10977 0.07684,0.23234 0.07684,0.36772c0,0.12074 -0.02378,0.236 -0.07135,0.34577c-0.04757,0.10977 -0.11251,0.20581 -0.19484,0.28814c-0.08233,0.08233 -0.1802,0.14727 -0.29363,0.19484c-0.11343,0.04757 -0.236,0.07135 -0.36772,0.07135c-0.12806,0 -0.24789,-0.02287 -0.35949,-0.0686c-0.1116,-0.04574 -0.20947,-0.10885 -0.29363,-0.18935c-0.08416,-0.0805 -0.15093,-0.17563 -0.20033,-0.2854c-0.0494,-0.10977 -0.07409,-0.22868 -0.07409,-0.35674z" data-paper-data="{&quot;glyphName&quot;:&quot;.&quot;,&quot;glyphIndex&quot;:29,&quot;lastGlyphOfWord&quot;:true,&quot;word&quot;:7}"></path></g><g data-paper-data="{&quot;isPrimaryText&quot;:true}" fill-rule="nonzero"><path d="M164.45492,242.2679v-9.06311c2.61329,2.39088 5.32852,3.58632 8.14568,3.58632c1.33445,0 2.41868,-0.37995 3.25271,-1.13984c0.83403,-0.75989 1.25104,-1.91827 1.25104,-3.47512v-25.32668h9.78594v24.71505c0,2.27968 -0.30118,4.27208 -0.90353,5.97721c-0.60235,1.70513 -1.33908,3.0303 -2.21018,3.97554c-0.8711,0.94523 -1.92753,1.71439 -3.16931,2.30748c-1.24178,0.59309 -2.37235,0.97303 -3.39172,1.13984c-1.01937,0.16681 -2.08507,0.25021 -3.19711,0.25021c-3.26198,0 -6.44982,-0.9823 -9.56353,-2.9469z" data-paper-data="{&quot;glyphName&quot;:&quot;J&quot;,&quot;glyphIndex&quot;:0,&quot;firstGlyphOfWord&quot;:true,&quot;word&quot;:1}"></path><path d="M196.84304,233.95541c0,0 -0.18071,-0.58845 -0.54212,-1.76536c-0.36141,-1.17691 -0.54212,-3.30368 -0.54212,-6.38032c0,-3.07664 0.36141,-5.79187 1.08424,-8.14568c0.72282,-2.35381 1.66342,-4.22111 2.8218,-5.60189c1.15837,-1.38078 2.54379,-2.51135 4.15624,-3.39172c1.61246,-0.88036 3.19711,-1.46882 4.75396,-1.76536c1.55685,-0.29654 3.22491,-0.44482 5.00417,-0.44482c1.77926,0 3.44732,0.14827 5.00417,0.44482c1.55685,0.29654 3.14151,0.885 4.75396,1.76536c1.61246,0.88036 2.99787,2.01094 4.15624,3.39172c1.15837,1.38078 2.09897,3.24808 2.8218,5.60189c0.72282,2.35381 1.08424,5.06904 1.08424,8.14568c0,3.07664 -0.36141,5.79187 -1.08424,8.14568c-0.72282,2.35381 -1.66342,4.22111 -2.8218,5.60189c-1.15837,1.38078 -2.54379,2.51135 -4.15624,3.39172c-1.61246,0.88036 -3.19711,1.46882 -4.75396,1.76536c-1.55685,0.29654 -3.22491,0.44482 -5.00417,0.44482c-1.77926,0 -3.44732,-0.14827 -5.00417,-0.44482c-1.55685,-0.29654 -3.14151,-0.885 -4.75396,-1.76536c-1.61246,-0.88036 -2.99787,-2.01094 -4.15624,-3.39172c-1.15837,-1.38078 -2.09897,-3.24808 -2.8218,-5.60189zM207.74102,217.21923c0,0 -0.36605,0.39848 -1.09814,1.19544c-0.73209,0.79696 -1.09814,3.26198 -1.09814,7.39506c0,4.13308 0.73209,6.99658 2.19628,8.5905c1.46418,1.59392 3.41025,2.39088 5.8382,2.39088c2.42795,0 4.37402,-0.79696 5.8382,-2.39088c1.46418,-1.59392 2.19628,-4.45742 2.19628,-8.5905c0,-4.13308 -0.73209,-6.99658 -2.19628,-8.5905c-1.46418,-1.59392 -3.41025,-2.39088 -5.8382,-2.39088c-2.42795,0 -4.37402,0.79696 -5.8382,2.39088z" data-paper-data="{&quot;glyphName&quot;:&quot;O&quot;,&quot;glyphIndex&quot;:1,&quot;word&quot;:1}"></path><path d="M239.1839,244.82558v-37.97611h12.87184c10.02688,0 15.04032,3.54926 15.04032,10.64777c0,1.22324 -0.19924,2.29821 -0.59772,3.22491c-0.39848,0.9267 -0.94987,1.66342 -1.65416,2.21018c-0.70429,0.54675 -1.30201,0.94523 -1.79316,1.19544c-0.49115,0.25021 -1.06107,0.48652 -1.70976,0.70892c5.07831,1.44565 7.61746,4.61496 7.61746,9.50793c0,6.98731 -5.25438,10.48096 -15.76314,10.48096zM248.96984,236.79111h5.58799c0.07414,0 0.139,0 0.19461,0c1.27884,0.01853 2.37235,-0.30581 3.28051,-0.97303c0.94523,-0.70429 1.41785,-1.76073 1.41785,-3.16931c0,-1.40858 -0.52822,-2.43722 -1.58465,-3.08591c-1.05644,-0.64869 -2.21481,-0.97303 -3.47512,-0.97303h-5.42119zM248.96984,221.72299h5.03197c0.90816,0 1.73293,-0.28728 2.47429,-0.86183c0.74136,-0.57455 1.11204,-1.35298 1.11204,-2.33528c0,-1.29738 -0.42628,-2.23798 -1.27884,-2.8218c-0.85256,-0.58382 -1.81633,-0.87573 -2.8913,-0.87573h-4.44815z" data-paper-data="{&quot;glyphName&quot;:&quot;B&quot;,&quot;glyphIndex&quot;:2,&quot;lastGlyphOfWord&quot;:true,&quot;word&quot;:1}"></path><path d="M294.50782,218.30347c0,-3.91067 1.34835,-6.85294 4.04504,-8.82681c2.69669,-1.97387 6.03744,-2.9608 10.02225,-2.9608c3.61412,0 7.02438,0.8711 10.23075,2.61329v8.53489c-3.07664,-1.81633 -6.01427,-2.72449 -8.8129,-2.72449c-1.48272,0 -2.80326,0.24558 -3.96164,0.73673c-1.15837,0.49115 -1.73756,1.30201 -1.73756,2.43258c0,0.72282 0.42628,1.32518 1.27884,1.80706c0.85256,0.48188 1.9368,0.8433 3.25271,1.08424c1.31591,0.24094 2.71986,0.63942 4.21185,1.19544c1.49198,0.55602 2.89593,1.23251 4.21185,2.02947c1.31591,0.79696 2.40015,2.02947 3.25271,3.69753c0.85256,1.66806 1.27884,3.69753 1.27884,6.08841c0,3.33612 -1.32981,6.04671 -3.98944,8.13178c-2.65963,2.08507 -5.88917,3.12761 -9.68863,3.12761c-5.20805,0 -9.59133,-1.23251 -13.14985,-3.69753v-9.14652c3.50292,2.90983 7.38579,4.36475 11.6486,4.36475c0.01853,0 0.04633,0 0.0834,0c1.44565,0 2.69206,-0.27338 3.73923,-0.82013c1.04717,-0.54675 1.57075,-1.32981 1.57075,-2.34918c0,-0.68576 -0.32434,-1.26958 -0.97303,-1.75146c-0.64869,-0.48188 -1.49198,-0.86183 -2.52989,-1.13984l-3.39172,-0.86183c-1.22324,-0.29654 -2.46039,-0.71356 -3.71143,-1.25104c-1.25104,-0.53749 -2.38625,-1.19544 -3.40562,-1.97387c-1.01937,-0.77843 -1.8534,-1.8812 -2.50209,-3.30831c-0.64869,-1.42712 -0.97303,-3.10444 -0.97303,-5.03197z" data-paper-data="{&quot;glyphName&quot;:&quot;S&quot;,&quot;glyphIndex&quot;:3,&quot;firstGlyphOfWord&quot;:true,&quot;word&quot;:2}"></path><path d="M330.23205,244.82558v-37.97611h9.78594v14.98472h12.20462v-14.98472h9.78594v37.97611h-9.78594v-14.98472h-12.20462v14.98472z" data-paper-data="{&quot;glyphName&quot;:&quot;H&quot;,&quot;glyphIndex&quot;:4,&quot;word&quot;:2}"></path><path d="M368.54177,244.82558l15.09592,-37.97611h9.22992l15.06812,37.97611h-10.53656l-2.9469,-9.11872h-12.42703l-2.9469,9.11872zM384.36052,228.47862h7.70087l-3.80873,-11.78761z" data-paper-data="{&quot;glyphName&quot;:&quot;A&quot;,&quot;glyphIndex&quot;:5,&quot;word&quot;:2}"></path><path d="M414.24655,244.82558v-37.97611h9.78594v29.16321h16.87518v8.8129z" data-paper-data="{&quot;glyphName&quot;:&quot;L&quot;,&quot;glyphIndex&quot;:6,&quot;word&quot;:2}"></path><path d="M445.60604,244.82558l15.09592,-37.97611h9.22992l15.06812,37.97611h-10.53656l-2.9469,-9.11872h-12.42703l-2.9469,9.11872zM461.42479,228.47862h7.70087l-3.80873,-11.78761z" data-paper-data="{&quot;glyphName&quot;:&quot;A&quot;,&quot;glyphIndex&quot;:7,&quot;lastGlyphOfWord&quot;:true,&quot;word&quot;:2}"></path></g><g data-paper-data="{&quot;fillRule&quot;:&quot;evenodd&quot;,&quot;fillRuleOriginal&quot;:&quot;evenodd&quot;,&quot;isIcon&quot;:true,&quot;iconStyle&quot;:&quot;standalone&quot;,&quot;selectedEffects&quot;:{&quot;container&quot;:&quot;&quot;,&quot;transformation&quot;:&quot;&quot;,&quot;pattern&quot;:&quot;&quot;},&quot;bounds&quot;:{&quot;x&quot;:64.99999999999999,&quot;y&quot;:195.23462592154158,&quot;width&quot;:53.94816595295322,&quot;height&quot;:79.53074815691684},&quot;iconType&quot;:&quot;icon&quot;,&quot;rawIconId&quot;:&quot;818&quot;,&quot;isDetailed&quot;:false,&quot;suitableAsStandaloneIcon&quot;:true}" fill-rule="evenodd"><path d="M73.97133,228.22519c14.79997,-14.6824 16.95912,-27.01256 11.97574,-32.99056c0,0 37.67187,15.48136 15.51311,51.38883c-0.7273,1.16917 -1.66347,2.37893 -2.66676,3.67545c-4.22897,5.4649 -9.65002,12.47039 -5.64718,24.46647c-0.00086,0 -47.40178,-13.27157 -19.17491,-46.54018zM108.44395,265.24742c-10.04846,6.88568 -11.47714,8.37512 -11.61737,8.69719c-0.07003,-0.25016 -0.15747,-0.52383 -0.2529,-0.82264c-1.06868,-3.34677 -3.14424,-9.84654 6.87315,-21.70908c5.88789,-6.95459 9.91785,-22.23171 7.95522,-25.87978c0,0 18.8059,24.83882 -2.95811,39.71431zM96.85096,274.03335c-0.00789,-0.02926 -0.01596,-0.05879 -0.02437,-0.08874c-0.03982,0.09148 0.02437,0.08874 0.02437,0.08874z" data-paper-data="{&quot;isPathIcon&quot;:true}"></path></g><path d="M137.15087,274.76537v-79.53075h1.52641v79.53075z" data-paper-data="{&quot;isShapeTextSeparator&quot;:true}" fill-rule="nonzero"></path></g></g><g class="watermark-group" style="opacity:0.040000010281801224"><path class="watermark-path" d="M129.52,370.3a11.88,11.88,0,0,1,2.58,5.58,12,12,0,0,1,.11,3,11.81,11.81,0,0,1-.64,2.93,12.34,12.34,0,0,1-1.41,2.72,11.65,11.65,0,0,1-2.13,2.32,12,12,0,0,1-2.64,1.69,13,13,0,0,1-2.91.9,12.47,12.47,0,0,1-3,.12,12.17,12.17,0,0,1-2.93-.64,11.8,11.8,0,0,1-2.72-1.38,12.19,12.19,0,0,1-4-4.79,11.85,11.85,0,0,1-.89-2.92,12.14,12.14,0,0,1-.13-3,11.54,11.54,0,0,1,.64-2.92,11.67,11.67,0,0,1,3.5-5,11.44,11.44,0,0,1,2.67-1.69,11.64,11.64,0,0,1,2.92-.91,10.71,10.71,0,0,1,3-.12,11.68,11.68,0,0,1,5.66,2,11.7,11.7,0,0,1,2.34,2.12m-1.4,8.76a13,13,0,0,1-1.22,2.32,9.68,9.68,0,0,1-1.81,2,7.44,7.44,0,0,1-2.38,1.37,6.17,6.17,0,0,1-5.11-.46,8.73,8.73,0,0,1-3.85-4.58,6.69,6.69,0,0,1-.34-2.66,6.09,6.09,0,0,1,.77-2.47,7.15,7.15,0,0,1,1.75-2.11,9.58,9.58,0,0,1,1.09-.81,8.23,8.23,0,0,1,1.12-.63,8.14,8.14,0,0,1,1.19-.46,12.71,12.71,0,0,1,1.32-.37l2,2.38a12.83,12.83,0,0,0-1.56.17,7.86,7.86,0,0,0-1.23.32,4.5,4.5,0,0,0-1,.49,6.41,6.41,0,0,0-.93.67,4.49,4.49,0,0,0-1.15,1.39,3.87,3.87,0,0,0-.45,1.58,4.12,4.12,0,0,0,.26,1.63,6.11,6.11,0,0,0,2.36,2.82,4.43,4.43,0,0,0,1.57.53,3.91,3.91,0,0,0,1.62-.17,4.71,4.71,0,0,0,1.57-.89,10.5,10.5,0,0,0,.83-.79,5.71,5.71,0,0,0,.65-.93,10.13,10.13,0,0,0,.54-1.14,12.24,12.24,0,0,0,.44-1.49l2,2.33m-14.46,4.55a8.86,8.86,0,0,0,2.78,2.22,9,9,0,0,0,3.29.94,9.15,9.15,0,0,0,3.39-.37,8.68,8.68,0,0,0,3.11-1.69,8.8,8.8,0,0,0,2.22-2.78,9.15,9.15,0,0,0,1-3.29,8.95,8.95,0,0,0-4.83-8.76,9,9,0,0,0-6.73-.57,9,9,0,0,0-5.33,4.47,8.94,8.94,0,0,0-.57,6.71,8.76,8.76,0,0,0,1.7,3.12"></path><path class="watermark-path" d="M147,349c-.48.12-1.09.31-1.82.57a24.37,24.37,0,0,0-2.4,1A28.35,28.35,0,0,0,140,352a20.72,20.72,0,0,0-2.71,1.94c-.7.59-1.28,1.11-1.74,1.57a15.07,15.07,0,0,0-1.1,1.22,4.09,4.09,0,0,0-.59.92,2.32,2.32,0,0,0-.22.64,1.16,1.16,0,0,0,0,.47,1.83,1.83,0,0,0,.18.29,1.15,1.15,0,0,0,1,.37,5.54,5.54,0,0,0,1.51-.38q.87-.35,1.95-.9l2.26-1.18q1.2-.65,2.49-1.29c.87-.44,1.73-.83,2.59-1.17a18.94,18.94,0,0,1,2.6-.81,9.27,9.27,0,0,1,2.46-.29,6.25,6.25,0,0,1,2.24.49,5.12,5.12,0,0,1,1.89,1.47,6.35,6.35,0,0,1,1.41,2.61,6,6,0,0,1,.09,2.6,8.3,8.3,0,0,1-.9,2.52,17.79,17.79,0,0,1-1.62,2.37,23.92,23.92,0,0,1-2,2.15c-.72.67-1.41,1.29-2.09,1.87a33.79,33.79,0,0,1-5.33,3.7,32.29,32.29,0,0,1-4.91,2.28l-3.61-4.3a21.38,21.38,0,0,0,5.39-1.87,27.2,27.2,0,0,0,5.4-3.56,21.59,21.59,0,0,0,2.38-2.27,8.67,8.67,0,0,0,1.18-1.7,2.32,2.32,0,0,0,.27-1.19,1.34,1.34,0,0,0-.28-.74,1.21,1.21,0,0,0-1-.42,4.32,4.32,0,0,0-1.55.34,15.77,15.77,0,0,0-2,.88c-.72.37-1.48.77-2.27,1.21l-2.45,1.3c-.85.45-1.7.85-2.56,1.21a22.37,22.37,0,0,1-2.54.86,10,10,0,0,1-2.43.32,5.76,5.76,0,0,1-2.2-.45,5,5,0,0,1-1.89-1.45,6.12,6.12,0,0,1-1.31-2.41,6,6,0,0,1-.1-2.41,8.28,8.28,0,0,1,.81-2.38,14.06,14.06,0,0,1,1.49-2.24,22.37,22.37,0,0,1,1.85-2.05q1-1,2-1.77c.7-.59,1.44-1.15,2.23-1.7s1.62-1.06,2.44-1.53,1.63-.91,2.43-1.3,1.58-.75,2.3-1L147,349"></path><path class="watermark-path" d="M186.76,337.57l-10.6-12.63,3.92,18.24-4.66,3.91-17.27-7,10.6,12.63-4.86,4.07-15.09-18,6.59-5.54,18.69,7.52-4.15-19.71,6.57-5.52,15.09,18-4.83,4.05"></path><path class="watermark-path" d="M208.84,313.24l-10,8.42,1.16,4.82L194.56,331l-5.68-25.89,5.42-4.55,24.51,10.09-5.42,4.55-4.55-2m-11.23,3.45,6.57-5.52-8.83-3.87,2.26,9.39"></path><path class="watermark-path" d="M227.49,281.38c-.48.12-1.09.31-1.82.57a24.37,24.37,0,0,0-2.4,1,26.11,26.11,0,0,0-2.7,1.47,20.72,20.72,0,0,0-2.71,1.94c-.7.59-1.28,1.11-1.74,1.57a13.39,13.39,0,0,0-1.1,1.22,4.29,4.29,0,0,0-.59.91,2.48,2.48,0,0,0-.22.65,1.16,1.16,0,0,0,0,.47,1.83,1.83,0,0,0,.18.29,1.15,1.15,0,0,0,1,.37,5.54,5.54,0,0,0,1.51-.38q.87-.34,2-.9l2.26-1.18q1.2-.64,2.49-1.29c.87-.44,1.73-.83,2.59-1.17a18.94,18.94,0,0,1,2.6-.81,9.27,9.27,0,0,1,2.46-.29,6.08,6.08,0,0,1,2.24.49,5.09,5.09,0,0,1,1.89,1.46,6.47,6.47,0,0,1,1.41,2.61,6.07,6.07,0,0,1,.09,2.61,8.3,8.3,0,0,1-.9,2.52,16.32,16.32,0,0,1-1.63,2.36,21.41,21.41,0,0,1-2,2.16c-.72.67-1.41,1.29-2.1,1.86a33.36,33.36,0,0,1-5.32,3.71,31.92,31.92,0,0,1-4.92,2.28l-3.6-4.3a21.38,21.38,0,0,0,5.39-1.87,27.2,27.2,0,0,0,5.4-3.56,21.59,21.59,0,0,0,2.38-2.27,8.67,8.67,0,0,0,1.18-1.7A2.32,2.32,0,0,0,231,293a1.34,1.34,0,0,0-.28-.74,1.21,1.21,0,0,0-1-.42,4.32,4.32,0,0,0-1.55.34,16.54,16.54,0,0,0-2,.88c-.71.37-1.47.77-2.26,1.21l-2.46,1.3c-.84.44-1.7.85-2.55,1.21a24.53,24.53,0,0,1-2.54.86A10,10,0,0,1,214,298a5.76,5.76,0,0,1-2.2-.45,5,5,0,0,1-1.89-1.45,6.12,6.12,0,0,1-1.31-2.41,5.78,5.78,0,0,1-.1-2.41,8,8,0,0,1,.81-2.38,14.61,14.61,0,0,1,1.49-2.25,22.26,22.26,0,0,1,1.85-2q1-1,2-1.77c.7-.59,1.44-1.15,2.23-1.7s1.62-1.06,2.44-1.53,1.63-.91,2.43-1.31,1.58-.74,2.3-1l3.5,4.16"></path><path class="watermark-path" d="M261.64,274.74l-6.29-7.5L243,277.61l6.3,7.5-4.86,4.07-15.09-18,4.85-4.08,5.49,6.55L252,263.3l-5.49-6.55,4.86-4.07,15.09,18-4.86,4.08"></path><path class="watermark-path" d="M272.18,265.9l-15.09-18,4.86-4.08,15.09,18-4.86,4.08"></path><path class="watermark-path" d="M299.65,242.85l-22.51-2.18L287.51,253l-4.85,4.08-15.1-18,5.28-4.43,22.56,2.22L285,224.5l4.83-4.06,15.09,18-5.26,4.42"></path><path class="watermark-path" d="M306.68,205.52a31.88,31.88,0,0,1,5.29-3.66,34.48,34.48,0,0,1,5.14-2.35l3.69,4.39a20.77,20.77,0,0,0-2.37.61,20.47,20.47,0,0,0-2.61,1,25.12,25.12,0,0,0-2.76,1.49,23.9,23.9,0,0,0-2.8,2,20.42,20.42,0,0,0-2.8,2.77,12.77,12.77,0,0,0-1.64,2.52,7,7,0,0,0-.68,2.24,6,6,0,0,0,.66,3.64,8.16,8.16,0,0,0,.94,1.38,9.12,9.12,0,0,0,1.08,1.07,6.39,6.39,0,0,0,1.47.91,6.73,6.73,0,0,0,1.88.48,6.54,6.54,0,0,0,2.28-.18,11.67,11.67,0,0,0,2.74-1.07,19.38,19.38,0,0,0,3.18-2.22c.57-.48,1.06-.92,1.46-1.31a14.57,14.57,0,0,0,1-1.13,11.46,11.46,0,0,0,.81-1.05l.74-1.09-1.82-2.17-5.45,4.57-3.31-3.94,10.31-8.65,7.71,9.19a29,29,0,0,1-1.67,2.43q-1,1.26-2.1,2.52c-.74.84-1.5,1.65-2.3,2.44s-1.58,1.5-2.33,2.14a31,31,0,0,1-3.59,2.61,22.55,22.55,0,0,1-3.64,1.83,15.64,15.64,0,0,1-3.63.89,10.72,10.72,0,0,1-3.49-.15,10.45,10.45,0,0,1-3.28-1.33,12.54,12.54,0,0,1-3-2.67,12,12,0,0,1-2.08-3.44,10.45,10.45,0,0,1-.71-3.5,11.14,11.14,0,0,1,.51-3.51,15.72,15.72,0,0,1,1.56-3.43,21.62,21.62,0,0,1,2.42-3.28,30.3,30.3,0,0,1,3.15-3"></path><path class="watermark-path" d="M336.91,211.59l-15.1-18,4.86-4.08,11.79,14,13.13-11,3.31,3.94-18,15.1"></path><path class="watermark-path" d="M374.54,164.71a12.28,12.28,0,0,1,2.59,4.81,10.44,10.44,0,0,1,0,5,14.62,14.62,0,0,1-2.33,5,25.55,25.55,0,0,1-4.56,4.85,26.07,26.07,0,0,1-5.6,3.67,14.79,14.79,0,0,1-5.38,1.43,10.43,10.43,0,0,1-4.94-.89,13.24,13.24,0,0,1-6.87-8.18,10.48,10.48,0,0,1,0-5,14.51,14.51,0,0,1,2.36-5,25.23,25.23,0,0,1,4.57-4.89,25,25,0,0,1,5.59-3.64,14.45,14.45,0,0,1,5.35-1.43,10.31,10.31,0,0,1,4.93.92,12.22,12.22,0,0,1,4.28,3.38m-4.91,4.11a8.36,8.36,0,0,0-2-1.72,5.5,5.5,0,0,0-2.65-.85,7.72,7.72,0,0,0-3.32.57,14.49,14.49,0,0,0-4,2.52,16.72,16.72,0,0,0-2.38,2.4,10.15,10.15,0,0,0-1.39,2.24,6.71,6.71,0,0,0-.56,2.1,5.69,5.69,0,0,0,.1,1.9,6.21,6.21,0,0,0,.61,1.69,9.85,9.85,0,0,0,1,1.44,10.48,10.48,0,0,0,1.26,1.23,6.67,6.67,0,0,0,1.57.92,6.1,6.1,0,0,0,1.85.41,6.8,6.8,0,0,0,2.15-.2,11.06,11.06,0,0,0,2.45-1,17.67,17.67,0,0,0,2.77-1.94,14.39,14.39,0,0,0,3.18-3.52,7.74,7.74,0,0,0,1.14-3.17,5.54,5.54,0,0,0-.37-2.74,8.52,8.52,0,0,0-1.36-2.3"></path><path class="watermark-path" d="M382.66,141.76A32.3,32.3,0,0,1,388,138.1a34.12,34.12,0,0,1,5.15-2.35l3.69,4.4a19.62,19.62,0,0,0-2.37.6,22.08,22.08,0,0,0-2.61,1,26,26,0,0,0-2.77,1.49,23.9,23.9,0,0,0-2.8,2,21,21,0,0,0-2.8,2.78,13.19,13.19,0,0,0-1.64,2.51,7.29,7.29,0,0,0-.68,2.24,6.36,6.36,0,0,0,.06,2,5.8,5.8,0,0,0,.61,1.68,8.12,8.12,0,0,0,.93,1.38,9.16,9.16,0,0,0,1.08,1.08,6.56,6.56,0,0,0,1.48.9,6,6,0,0,0,1.87.48,6.76,6.76,0,0,0,2.28-.17,12,12,0,0,0,2.74-1.08,18.57,18.57,0,0,0,3.18-2.22c.58-.48,1.06-.92,1.46-1.31s.75-.77,1.05-1.12.57-.72.81-1.06l.73-1.09-1.82-2.17-5.45,4.57-3.3-3.94,10.3-8.65,7.71,9.19a29,29,0,0,1-1.67,2.43q-1,1.26-2.1,2.52c-.73.84-1.5,1.66-2.3,2.44s-1.57,1.5-2.33,2.14a31,31,0,0,1-3.59,2.61,22.15,22.15,0,0,1-3.64,1.83,15.56,15.56,0,0,1-3.62.89,11,11,0,0,1-3.49-.14,10.84,10.84,0,0,1-3.28-1.33,12.82,12.82,0,0,1-3-2.68,12.12,12.12,0,0,1-2.08-3.43A10.71,10.71,0,0,1,375,155a11.18,11.18,0,0,1,.51-3.51,15.51,15.51,0,0,1,1.57-3.43,21.44,21.44,0,0,1,2.42-3.28,30.19,30.19,0,0,1,3.14-3"></path><path class="watermark-path" d="M428.63,119.31a12.26,12.26,0,0,1,2.59,4.82,10.44,10.44,0,0,1,0,5,14.53,14.53,0,0,1-2.34,5,25.29,25.29,0,0,1-4.56,4.86,26,26,0,0,1-5.59,3.67,14.84,14.84,0,0,1-5.38,1.43,10.61,10.61,0,0,1-4.95-.89,12.15,12.15,0,0,1-4.3-3.37,12,12,0,0,1-2.56-4.81,10.48,10.48,0,0,1,0-5,14.39,14.39,0,0,1,2.35-5,27.89,27.89,0,0,1,10.16-8.53,14.49,14.49,0,0,1,5.36-1.43,10.27,10.27,0,0,1,4.92.92,12.21,12.21,0,0,1,4.28,3.37m-4.91,4.12a8.17,8.17,0,0,0-2-1.72,5.58,5.58,0,0,0-2.65-.86,7.86,7.86,0,0,0-3.31.58,14.49,14.49,0,0,0-4,2.52,16.21,16.21,0,0,0-2.38,2.4,9.85,9.85,0,0,0-1.4,2.24,7,7,0,0,0-.56,2.1,6,6,0,0,0,.1,1.9,6.23,6.23,0,0,0,.62,1.69,8.49,8.49,0,0,0,1,1.44,9.18,9.18,0,0,0,1.26,1.23,6.67,6.67,0,0,0,1.57.92,6,6,0,0,0,1.84.41,6.86,6.86,0,0,0,2.16-.2,11.26,11.26,0,0,0,2.45-1,17.62,17.62,0,0,0,2.76-1.94,14.67,14.67,0,0,0,3.19-3.52,7.71,7.71,0,0,0,1.13-3.17,5.53,5.53,0,0,0-.36-2.74,8.55,8.55,0,0,0-1.37-2.3"></path></g></svg>




